<svg width="90" height="90" viewBox="0 0 90 90" fill="none" xmlns="http://www.w3.org/2000/svg">
  <path fill-rule="evenodd" clip-rule="evenodd" d="M45 90C69.8528 90 90 69.8528 90 45C90 20.1472 69.8528 0 45 0C20.1472 0 0 20.1472 0 45C0 69.8528 20.1472 90 45 90ZM18.7871 19.6467C18.7871 19.5072 18.9139 19.3043 19.0661 19.2029C19.2183 19.0888 19.4085 19 19.4719 19C19.548 19 20.8541 20.2427 22.3885 21.7645C25.0642 24.3894 25.9392 25.239 30.4536 29.6013C30.9285 30.0594 31.4945 30.6037 32.0474 31.1355L32.0483 31.1363L32.0496 31.1375L32.0503 31.1382C32.7513 31.8124 33.4312 32.4662 33.8775 32.8983C34.5942 33.5923 36.7603 35.654 38.9106 37.7006L38.9114 37.7015L39.6473 38.4019L40.8812 39.5763L40.8821 39.5771C42.8527 41.4524 44.7241 43.2334 45.3538 43.842C46.1273 44.5902 47.5222 45.9344 48.4606 46.8347C49.399 47.7351 51.0855 49.3583 52.2015 50.4361C53.3174 51.5267 55.1688 53.3274 56.3228 54.4433C56.9594 55.0589 57.8353 55.91 58.6971 56.7473L58.7013 56.7514C59.4002 57.4305 60.0896 58.1004 60.6343 58.628C61.4567 59.4333 63.0081 60.9387 64.6125 62.4953L64.613 62.4959C65.3835 63.2435 66.1661 64.0029 66.886 64.7022C69.1813 66.9468 70.944 68.7601 70.982 68.925C71.0835 69.3054 70.7411 70.1043 70.2845 70.5355C69.9041 70.9032 69.1433 71.2456 68.7121 71.2456C68.3824 71.2456 67.5201 70.396 57.8318 60.4034C57.0315 59.5864 55.8859 58.4022 54.8382 57.3192C54.2922 56.7548 53.7728 56.2179 53.3428 55.7748C52.0747 54.4814 50.2866 52.6299 49.3483 51.6535C48.4099 50.6771 47.5729 49.8148 47.4968 49.7514C47.3573 49.6119 45.7976 47.9887 41.8158 43.7913C34.4228 36.0179 33.18 34.7117 25.0261 26.3296C21.0063 22.1829 18.7871 19.8116 18.7871 19.6467ZM29.883 29.652C28.767 28.5615 26.1548 26.0253 24.0751 24.009C21.9954 21.98 20.2454 20.3188 20.182 20.2935C20.1313 20.2681 20.0552 20.3061 20.0172 20.3569C19.9538 20.4583 21.4501 22.0434 25.4319 26.1013C27.7145 28.4346 33.0405 33.9636 36.6673 37.7678C37.3537 38.491 38.2504 39.4305 39.1513 40.3742L39.152 40.375C40.1149 41.3837 41.0825 42.3974 41.8031 43.1573C43.198 44.6156 44.707 46.2007 45.1509 46.6826L45.9624 47.5322L46.178 47.1771C46.3048 46.9742 46.5838 46.6699 46.7994 46.4924L47.2052 46.188L46.4697 45.5159C46.0639 45.1355 45.0748 44.1971 44.2759 43.4236C42.5639 41.7624 40.6872 39.9743 37.3013 36.7534C33.8394 33.469 32.2163 31.9219 29.883 29.652ZM62.9549 61.4686L62.5365 61.0374C62.2955 60.7965 62.0165 60.5936 61.9024 60.5936C61.4713 60.5936 60.8245 61.0755 60.5202 61.6461L60.1905 62.2294L60.6216 62.6733C61.1289 63.1932 61.2176 63.2186 61.3318 62.8889C61.4332 62.5718 62.2828 61.7349 62.6506 61.5954L62.9549 61.4686ZM64.3372 62.8508L63.9187 62.4197C63.6904 62.1787 63.4749 61.9885 63.4368 61.9885C63.2466 61.9885 62.5491 62.4957 62.2575 62.8635C61.7376 63.4849 61.7122 63.7131 62.118 64.2077C62.4984 64.6642 62.6633 64.753 62.6633 64.4867C62.6633 64.157 63.3988 63.2946 63.868 63.0791L64.3372 62.8508ZM69.7646 68.1134L67.4186 65.8182C66.1252 64.5501 64.9712 63.5102 64.8444 63.5102C64.464 63.5102 63.6904 64.1316 63.4241 64.6642L63.1578 65.1714L63.7919 65.8942C64.1343 66.2874 65.1868 67.3779 66.1252 68.3163C67.6596 69.838 67.8498 69.9775 67.9259 69.7366C68.0654 69.2801 68.7755 68.5573 69.2954 68.329L69.7646 68.1134ZM48.486 39.0868C58.7576 29.297 63.3862 24.846 67.368 20.9403C68.4459 19.8751 69.4097 19.0001 69.4857 19.0001C69.714 19.0001 70.1705 19.4947 70.1198 19.7102C70.0817 19.8878 69.5491 20.4584 65.0728 25.0236C60.5583 29.6521 57.6417 32.6702 52.6454 37.8947C51.149 39.4672 49.3737 41.3186 48.7016 42.0161C48.0295 42.7135 47.2687 43.5251 47.0024 43.8294C46.6219 44.2606 46.4951 44.3367 46.343 44.2226C46.2035 44.0957 46.3176 43.9182 46.9643 43.2334C47.4082 42.7769 48.765 41.344 49.9824 40.0505C52.0621 37.8567 53.14 36.7281 57.274 32.4419C61.5221 28.0416 67.2793 22.145 68.3318 21.1051C68.8263 20.6233 69.0546 20.1921 68.7502 20.2936C68.6361 20.3316 65.542 23.2863 61.0783 27.6232C59.8989 28.7771 57.7305 30.8568 56.2595 32.2517C54.8012 33.6339 52.9371 35.4093 52.1382 36.1828C50.3882 37.8821 46.3303 41.7244 45.5694 42.3965C45.2017 42.7262 44.9861 42.8403 44.8973 42.7516C44.8086 42.6628 45.9625 41.4835 48.486 39.0868ZM40.4463 46.8475C35.6149 51.5395 34.3975 52.7188 30.3903 56.5992C28.019 58.8945 24.9628 61.8618 23.606 63.1933C22.9502 63.8368 22.1849 64.5839 21.4717 65.2802L21.4678 65.284L21.4651 65.2866C20.7051 66.0285 20.005 66.712 19.5607 67.1498C18.0771 68.5954 17.9883 68.7095 18.001 69.1534C18.0263 69.7747 18.3687 70.3327 18.9901 70.7765C19.6749 71.2584 20.4484 71.3598 20.7654 71.0302C20.8161 70.9795 21.0155 70.7751 21.3175 70.4655L21.3181 70.4649L21.319 70.464L21.3203 70.4626L21.3213 70.4616C21.8514 69.9181 22.6954 69.0529 23.606 68.1262C27.4483 64.1951 29.2744 62.3183 36.0967 55.2677C36.9691 54.3662 37.8265 53.4796 38.6278 52.651C40.96 50.2394 42.8173 48.3189 43.1854 47.9508C43.8829 47.228 44.0477 46.9997 43.9209 46.8729C43.8068 46.7588 43.6926 46.7968 43.4137 47.0631L43.0586 47.4055L42.4119 46.7841L41.7651 46.1628L42.1582 45.7696C42.4626 45.478 42.526 45.3512 42.4119 45.237C42.2977 45.1229 41.8285 45.5033 40.4463 46.8475ZM27.6132 60.7966C28.0824 61.0249 28.4881 61.5067 28.615 62.0013C28.6784 62.2422 28.5896 62.3944 28.2472 62.7368C27.9936 62.9777 27.778 63.1553 27.7527 63.1172C27.7448 63.1016 27.674 62.9939 27.5762 62.8451L27.5762 62.845C27.5157 62.753 27.4449 62.6453 27.3722 62.5339C27.182 62.2422 26.8016 61.8618 26.5353 61.7096L26.028 61.418L26.4212 61.0122C26.8777 60.5303 27.0172 60.5176 27.6132 60.7966ZM25.8759 62.1661C26.3197 62.4071 27.1566 63.3201 27.1566 63.5864C27.1566 63.802 26.548 64.6516 26.3958 64.6516C26.3451 64.6516 26.2563 64.5121 26.2183 64.3473C26.1041 63.8908 25.5842 63.3201 25.0516 63.0665L24.5951 62.8509L25.0136 62.4198L25.0901 62.339C25.2998 62.1171 25.3905 62.0212 25.4898 62.0112C25.5654 62.0036 25.646 62.0459 25.7879 62.1204L25.7885 62.1206L25.7887 62.1208C25.8155 62.1348 25.8444 62.15 25.8759 62.1661ZM24.6331 63.7005C25.0389 63.9161 25.7617 64.8291 25.7617 65.1208C25.7617 65.1362 25.7628 65.1493 25.7637 65.1614C25.7645 65.1716 25.7653 65.1811 25.7653 65.1906C25.7655 65.3121 25.6454 65.4338 23.9861 67.1153L23.3016 67.8092L21.1585 69.965L20.981 69.6226C20.702 69.09 20.1694 68.57 19.6368 68.3291L19.155 68.1135L21.539 65.8183C22.8451 64.5502 23.9991 63.5103 24.0878 63.5103C24.1766 63.5103 24.4176 63.5991 24.6331 63.7005ZM37.8086 63.9668C37.8213 60.7585 40.4589 57.7784 43.5784 57.4361C45.9244 57.1824 47.8012 57.8799 49.3483 59.5411C50.6544 60.974 51.1997 62.4958 51.0856 64.4486C50.9588 66.7946 49.5512 68.8997 47.4335 69.9395C46.3936 70.4594 45.7215 70.5989 44.4661 70.6116C43.2234 70.6116 42.4245 70.4087 41.2451 69.7873C39.2162 68.7221 37.8086 66.3381 37.8086 63.9668ZM43.0782 59.1159C43.0729 59.0867 43.0505 59.0607 43.0223 59.028C43.0137 59.018 43.0045 59.0074 42.9951 58.9958C42.7922 58.7422 41.8919 58.7802 41.3466 59.0719C40.4209 59.5538 39.7488 60.7204 40.2687 60.9233C40.3575 60.9614 40.9154 60.6697 41.4988 60.2893L41.642 60.1945C42.8532 59.393 43.0988 59.2305 43.0782 59.1159ZM42.8303 69.6478C46.774 70.6623 50.4135 67.8598 50.3501 63.8526C50.3247 62.4324 50.1472 62.3309 50.0965 63.7131C50.0457 64.8798 50.0077 65.0573 49.5639 65.9704C48.9678 67.1624 48.5494 67.6569 47.5476 68.329C45.1889 69.9015 42.2089 69.6478 40.2307 67.7076C39.8249 67.3145 39.4064 66.858 39.2923 66.6805L39.064 66.3635L39.2162 66.6805C39.7995 67.9359 41.448 69.2928 42.8303 69.6478ZM43.5784 20.5406C40.4589 20.883 37.8213 23.863 37.8086 27.0713C37.8086 29.4426 39.2162 31.8267 41.2451 32.8919C42.4245 33.5132 43.2234 33.7161 44.4661 33.7161C45.7215 33.7035 46.3936 33.564 47.4335 33.044C49.5512 32.0042 50.9588 29.8992 51.0856 27.5532C51.1997 25.6003 50.6544 24.0786 49.3483 22.6456C47.8012 20.9844 45.9244 20.287 43.5784 20.5406ZM43.0223 22.1326C43.0505 22.1652 43.0729 22.1913 43.0782 22.2204C43.0988 22.335 42.8532 22.4975 41.642 23.299L41.4988 23.3938C40.9154 23.7743 40.3575 24.0659 40.2687 24.0279C39.7488 23.825 40.4209 22.6583 41.3466 22.1765C41.8919 21.8848 42.7922 21.8467 42.9951 22.1004C43.0045 22.1119 43.0137 22.1226 43.0223 22.1326ZM50.3501 26.9572C50.4135 30.9644 46.774 33.7669 42.8303 32.7524C41.448 32.3973 39.7995 31.0405 39.2162 29.785L39.064 29.468L39.2923 29.785C39.4064 29.9626 39.8249 30.4191 40.2307 30.8122C42.2089 32.7524 45.1889 33.006 47.5476 31.4336C48.5494 30.7615 48.9678 30.2669 49.5639 29.0749C50.0077 28.1619 50.0457 27.9843 50.0965 26.8177C50.1472 25.4355 50.3247 25.5369 50.3501 26.9572Z" fill="#363739"/>
</svg>
