<svg width="90" height="90" viewBox="0 0 90 90" fill="none" xmlns="http://www.w3.org/2000/svg">
  <path fill-rule="evenodd" clip-rule="evenodd" d="M45 90C69.8528 90 90 69.8528 90 45C90 20.1472 69.8528 0 45 0C20.1472 0 0 20.1472 0 45C0 69.8528 20.1472 90 45 90ZM55.7338 68.89C55.7338 68.89 55.6774 67.9381 55.5049 67.4848C55.3669 67.1289 54.9732 66.7431 54.8148 66.5956C54.8086 66.4153 54.7819 66.213 54.7474 65.9934C55.6037 64.7968 56.0945 63.3572 55.9848 61.5819C55.8656 59.6545 54.8274 57.5405 53.75 55.9174L53.7437 55.5896H53.8237C54.0715 55.5786 54.6721 55.1019 54.5137 54.5106C54.3318 53.7735 53.6716 53.6104 53.4363 53.6104H53.3705C53.3394 53.5539 53.3398 53.5273 53.3402 53.5046C53.3407 53.477 53.341 53.4553 53.2842 53.3924L53.198 53.2466C51.3129 49.707 48.8743 42.4413 48.2219 38.4422C49.9313 38.4422 51.5246 38.4422 51.5811 38.4406C51.7505 38.4187 53.4457 37.531 53.3375 36.1024C53.2152 34.3098 51.4791 33.6559 51.316 33.6559H47.8188L47.8157 33.6057C50.016 32.5408 51.5309 30.259 51.5309 27.6259C51.5309 23.9672 48.5967 21 44.9771 21C41.3576 21 38.4234 23.9672 38.4234 27.6259C38.4234 30.2559 39.9399 32.5377 42.1386 33.6057L42.1339 33.6559H38.5849C38.4218 33.6559 36.7547 34.3098 36.6293 36.1024C36.5211 37.5326 38.1489 38.4155 38.3183 38.4453C38.381 38.4469 40.0293 38.4469 41.7277 38.4469C41.091 42.3801 39.1307 48.9747 37.4322 53.0584C37.2958 53.2733 37.1907 53.4583 37.1154 53.6136H36.9476C36.7124 53.6136 36.0506 53.7704 35.8702 54.5138C35.7118 55.1034 36.3156 55.5802 36.5603 55.5927H36.5932L36.5242 55.817L36.4709 55.9205C36.3615 56.0936 36.2459 56.2728 36.1268 56.4574C35.2317 57.8452 34.1401 59.5376 34.0197 61.2165C33.888 63.0733 34.4274 64.8674 35.3323 66.1111C35.301 66.2334 35.2633 66.3839 35.221 66.5674C35.0861 66.6694 34.6376 67.0473 34.4682 67.4566C34.2675 67.9396 34.2643 68.89 34.2643 68.89H55.7338Z" fill="#363739"/>
</svg>
