<svg width="90" height="90" viewBox="0 0 90 90" fill="none" xmlns="http://www.w3.org/2000/svg">
  <path fill-rule="evenodd" clip-rule="evenodd" d="M45 90C69.8528 90 90 69.8528 90 45C90 20.1472 69.8528 0 45 0C20.1472 0 0 20.1472 0 45C0 69.8528 20.1472 90 45 90ZM56.8451 23.2983C56.8451 22.2173 57.7059 21.198 59.1202 20.5494C60.6574 19.8389 61.2415 19.8389 62.3791 20.4258C64.1008 21.3215 64.562 23.391 63.3937 25.0898C62.9632 25.7384 62.8095 26.1091 63.0247 25.9238C63.6089 25.4604 64.2238 25.9238 65.2383 27.6843C66.0377 29.0434 66.0377 29.2596 65.9762 33.3985C65.9147 37.0123 65.8225 37.9389 65.2998 38.9582C64.9616 39.6377 64.439 40.2246 64.1623 40.2864C63.8856 40.3481 62.3791 39.5451 60.8111 38.4949L58.0134 36.5799L56.6914 36.9505C55.6768 37.2285 54.9697 37.7845 53.6476 39.2671C52.6946 40.3481 51.926 41.3057 51.926 41.3674C51.926 41.4601 53.2787 42.047 54.9389 42.6956C59.1817 44.3326 60.1655 44.8577 60.6881 45.9079C61.7642 47.9773 61.3953 48.4406 54.2318 53.5062C50.5117 56.1316 49.4664 57.0273 49.4664 57.5524C49.4664 58.0157 49.2819 58.2628 48.9437 58.2628C48.0214 58.2628 46.4842 59.4056 45.4081 60.8573C44.3935 62.2782 43.7172 62.6179 43.4405 61.8766C43.0408 60.7956 45.4696 52.7031 46.1767 52.7031C46.3612 52.7031 47.0991 53.012 47.8677 53.3517C48.6055 53.7224 49.3127 53.9077 49.4356 53.7533C50.4195 52.6722 53.4632 48.9966 53.4632 48.9039C53.4632 48.8422 52.2641 48.6877 50.7884 48.5642C49.3127 48.4406 47.7447 48.2862 47.3143 48.1935C46.6994 48.1009 46.3919 48.2862 45.7156 49.2746C44.5473 51.0043 38.9518 55.3903 36.4 56.564C33.264 58.0466 25.7931 63.8225 25.7931 64.8109C25.7931 65.0889 25.4549 65.7375 25.0245 66.2317C24.1329 67.3128 24.0714 67.7452 24.7478 68.4865C25.4549 69.2896 25.086 70 23.9484 70C22.3805 70 21.5811 68.7336 20.1669 64.0387C19.675 62.4326 20.1976 62.0002 22.7187 61.8457L24.6556 61.7531L28.0682 58.1701C30.4663 55.6683 31.7576 54.5254 32.4032 54.4019C32.731 54.3244 33.0467 54.2591 33.2669 54.2135C33.3978 54.1864 33.4949 54.1663 33.5407 54.1548C33.6637 54.1239 35.1702 52.3633 36.8611 50.263C39.4744 46.9889 39.9356 46.2476 39.9356 45.2901C39.9356 43.3133 41.0731 41.6145 43.5942 39.8231C47.1298 37.3521 47.2528 37.1667 47.6217 34.3251C47.7754 32.9661 48.1751 31.0511 48.4518 30.0627C48.7285 29.1052 48.8822 28.2403 48.79 28.1476C48.6978 28.055 47.0991 27.8388 45.2237 27.6843L41.8418 27.3755L39.3822 28.4256C36.1848 29.8156 34.709 30.7731 33.5715 32.2248C33.0488 32.8734 32.1265 33.5838 31.4809 33.8309C30.3433 34.2324 29.6054 34.0471 30.4048 33.5529C31.2042 33.0587 30.0666 33.1823 29.175 33.7074C28.1297 34.3251 27.9452 34.2942 28.099 33.4912C28.2834 32.6263 29.1135 31.9468 31.3271 30.8657C32.2495 30.4024 33.5715 29.5685 34.2479 29.0434C34.9242 28.4874 36.5537 27.3446 37.8757 26.4797C40.6427 24.6574 42.2414 24.2867 48.0829 24.1941C50.9729 24.1323 51.9874 24.2558 52.8483 24.6574C54.8467 25.6149 55.2464 25.6149 56.0765 24.7809C56.5069 24.3485 56.8451 23.669 56.8451 23.2983ZM63.1784 27.8079C63.0862 27.5608 62.994 27.1901 62.994 27.0357C62.994 26.8813 62.871 26.7577 62.6865 26.7577C62.5328 26.7577 62.3791 26.9739 62.3791 27.221C62.3791 27.499 62.1331 27.777 61.8564 27.9005C61.549 27.9932 60.9034 28.3639 60.4114 28.7036L59.5198 29.3214L58.9664 28.6727C58.2901 27.8079 57.8904 27.8079 57.3062 28.7345C56.8451 29.4449 56.8451 29.5685 57.3062 30.2789C57.5829 30.6804 58.1671 31.2673 58.5668 31.5453C58.9972 31.8232 59.5506 32.4719 59.7965 33.0278C60.0732 33.5838 60.8726 34.4487 61.6105 35.0046C62.8403 35.9313 62.9632 35.9621 63.3937 35.4679C64.6234 34.1089 64.9001 31.5144 63.9163 30.6186C63.5781 30.3098 63.3014 29.8773 63.3014 29.692C63.3014 29.4758 63.0862 29.136 62.8403 28.9198C62.2254 28.3947 62.2561 27.8697 62.871 28.1168C63.2399 28.2712 63.3322 28.1785 63.1784 27.8079Z" fill="#363739"/>
</svg>
