<svg width="90" height="90" viewBox="0 0 90 90" fill="none" xmlns="http://www.w3.org/2000/svg">
  <path fill-rule="evenodd" clip-rule="evenodd" d="M45 90C69.8528 90 90 69.8528 90 45C90 20.1472 69.8528 0 45 0C20.1472 0 0 20.1472 0 45C0 69.8528 20.1472 90 45 90ZM48.1491 16.0507C48.4267 16.156 48.8191 16.5963 48.8191 16.8165C48.8191 16.9888 48.7521 17.0558 48.532 17.0941C48.3692 17.1324 48.2257 17.2377 48.1969 17.3334C48.1586 17.4387 48.0342 17.5918 47.9002 17.6684C47.7758 17.7546 47.6705 17.8886 47.6705 17.9556C47.6705 18.1757 47.4025 18.214 47.0483 18.0513C46.6271 17.8503 46.5218 17.9077 46.5218 18.3863C46.5218 18.7405 46.5027 18.7596 46.2347 18.7596C45.6795 18.7596 45.3158 17.9556 45.7561 17.6875C45.8614 17.6205 45.9475 17.477 45.9475 17.3717C45.9475 17.2568 46.1007 17.0271 46.2825 16.8452C46.4644 16.6633 46.6176 16.4719 46.6176 16.4049C46.6176 16.1465 47.7088 15.888 48.1491 16.0507ZM49.1345 16.9122C49.1728 16.9505 49.0675 17.1228 48.8952 17.3046L48.5794 17.6396L48.924 17.3908C49.3643 17.0558 49.5844 17.0653 49.9194 17.4195C50.1683 17.6779 50.2066 17.8024 50.2353 18.3575C50.2736 19.2094 50.197 19.3147 49.7376 19.0372C49.4217 18.8553 49.2877 18.8361 48.4932 18.8744L47.6126 18.9223L47.5935 18.6638C47.5839 18.5203 47.6413 18.348 47.7179 18.281C47.7945 18.214 47.8615 18.0991 47.8615 18.0225C47.8615 17.9459 47.9668 17.7928 48.1008 17.6875C48.2348 17.5822 48.3401 17.4386 48.3401 17.3621C48.3401 17.2855 48.4166 17.228 48.5028 17.228C48.5889 17.228 48.7517 17.1419 48.8665 17.0366C48.9814 16.9313 49.1058 16.8739 49.1345 16.9122ZM51.7481 18.8553C51.48 18.6064 51.0876 18.281 50.877 18.1374L50.4941 17.8789L50.4271 18.415C50.3505 18.9893 50.1974 19.353 49.7475 19.9752C49.5848 20.2049 49.4795 20.3964 49.4986 20.4155C49.5178 20.4347 49.6901 20.5399 49.8815 20.6548L50.2357 20.8654L50.3793 20.2719C50.4558 19.9369 50.5516 19.5827 50.5898 19.487C50.6568 19.3434 50.6377 19.3243 50.5324 19.3817C50.4271 19.4487 50.4367 19.42 50.5516 19.2382C50.8387 18.8074 50.9153 18.9318 50.7239 19.5253C50.6281 19.8508 50.542 20.2815 50.542 20.4921C50.542 20.6882 50.542 20.7786 50.5825 20.8037C50.6171 20.8252 50.6813 20.799 50.8004 20.7505C50.9536 20.6931 51.2312 20.5208 51.4226 20.3676C51.6236 20.2145 51.7863 20.1283 51.7863 20.1762C51.7863 20.3006 51.2886 20.7314 50.9344 20.9132C50.7572 21.0018 50.6765 21.0422 50.6707 21.0915C50.6657 21.1327 50.7132 21.1802 50.8004 21.2674L50.8004 21.2674C50.8797 21.3467 50.9262 21.3932 50.9806 21.4061C51.0575 21.4244 51.1504 21.3756 51.3747 21.2578C51.9874 20.9515 52.4181 20.3964 52.5904 19.6976C52.6382 19.487 52.6095 19.4296 52.4372 19.3722C52.3224 19.3434 52.0065 19.1041 51.7481 18.8553ZM47.182 18.3384C47.2969 18.482 47.383 18.7213 47.383 18.884C47.383 19.1616 47.3926 19.1712 47.7851 19.1042C48.8858 18.9415 49.1539 18.9415 49.4889 19.1138C49.9388 19.3435 49.9579 19.5541 49.5655 19.9465C49.0677 20.4443 48.1584 20.607 47.45 20.3294C47.2969 20.272 47.2873 20.3007 47.3543 20.54C47.4213 20.7984 47.4405 21.813 47.3926 22.3969C47.3735 22.5309 47.3735 22.8372 47.383 23.0765C47.3926 23.4403 47.316 23.6892 46.9332 24.4166C46.6843 24.9144 46.4354 25.3355 46.3971 25.3547C46.3493 25.3643 46.0813 25.594 45.7845 25.8524C45.4974 26.1013 45.1049 26.3597 44.923 26.4267C44.186 26.666 43.516 26.264 42.9321 25.2302C42.5588 24.5793 42.5301 24.5698 42.7406 25.1824C43.0852 26.1396 43.7553 26.7043 44.5785 26.7043C44.8848 26.7043 45.0571 26.6278 45.3825 26.3597C45.6027 26.1779 45.9185 25.9577 46.0717 25.8716L46.3588 25.728L46.2918 26.0439C46.27 26.1475 46.2451 26.2947 46.2206 26.4394L46.2205 26.4397L46.2205 26.4398C46.2021 26.5488 46.1838 26.6563 46.1674 26.7426L46.11 27.1159L46.4833 26.8288C46.6843 26.666 47.0002 26.4842 47.182 26.4267C47.6319 26.2832 48.503 26.2927 48.5604 26.4363C48.5795 26.5033 48.6657 26.4076 48.7614 26.2162C49.0869 25.5174 49.8239 25.0197 51.231 24.5411L51.9106 24.3113L52.2456 24.7038C52.6285 25.1537 52.7338 25.1441 52.4562 24.6751C52.3509 24.4932 52.0925 23.8519 51.8723 23.2488C51.6617 22.6458 51.4033 22.0141 51.3076 21.8513L51.1257 21.5355L51.432 21.3823C52.0829 21.0473 52.6476 20.3964 52.6476 19.9752C52.6476 19.7359 52.8295 19.7742 53.4421 20.138C54.2653 20.6357 54.7918 21.1047 55.4905 21.9566C55.8447 22.3874 56.2946 22.9138 56.4956 23.134C56.7923 23.469 56.8593 23.6126 56.8593 23.9285C56.8593 24.6081 56.5817 24.9622 55.3756 25.8333C54.8779 26.1874 54.495 26.599 53.8824 27.3935C52.9444 28.6283 52.1786 29.2983 51.0683 29.8631C49.8909 30.447 49.8622 30.447 49.4314 29.8727C49.2304 29.6046 49.0486 29.4036 49.0294 29.4323C49.0103 29.4515 49.106 29.6142 49.24 29.7961C49.776 30.4948 50.0058 31.653 49.776 32.4475C49.6995 32.7251 49.709 32.8208 49.843 32.9931C50.5609 33.8737 50.5801 33.9025 50.6471 34.5055C50.6949 34.8405 50.8194 35.2904 50.9247 35.5105L51.1257 35.903L51.7383 35.367C52.0733 35.0702 52.5136 34.6203 52.7051 34.3619C53.0879 33.8642 53.2411 33.845 53.4134 34.2758C53.4804 34.4289 53.5474 34.5533 53.557 34.5533C53.5665 34.5533 53.7676 34.4481 53.9973 34.3236C54.227 34.1992 54.9736 33.8929 55.6628 33.644C56.3424 33.3951 57.1465 33.0218 57.4336 32.8304C58.3334 32.2274 58.5823 32.1316 59.2332 32.1316C60.3626 32.1412 61.6836 33.0505 61.942 34.0077C62.1047 34.6108 61.9612 35.0511 61.0231 36.8889C60.2095 38.4779 59.8266 39.4159 59.8266 39.8084C59.8266 39.8945 59.9702 39.6169 60.1425 39.1958C60.6211 38.0567 61.4251 36.573 61.5687 36.5635C61.7219 36.5635 61.7506 37.7887 61.6166 38.4396C61.4443 39.2436 61.1093 39.9328 60.2574 41.2537C59.549 42.3449 59.1949 43.015 58.9651 43.6946L58.8024 44.1732L58.1898 44.2019C57.4911 44.2402 56.9646 44.1158 56.4669 43.7903L56.1223 43.5701L56.0553 42.3354C55.8734 38.7554 55.8734 37.8748 56.0361 37.2335C56.1223 36.8889 56.285 36.4677 56.3903 36.2859C56.5243 36.0561 56.5434 35.9891 56.4381 36.0753C56.218 36.2667 55.8255 37.1378 55.6628 37.827C55.4809 38.5927 55.4809 39.7031 55.6628 40.4401C55.8447 41.1867 55.8447 41.56 55.6628 41.7898C55.5288 41.9621 55.4905 41.9429 54.9066 41.3399C54.1696 40.5645 53.6048 39.6456 53.2602 38.6214C53.0401 37.9705 52.9922 37.6547 52.9539 36.5347L52.9156 35.2138L53.1837 34.9171L53.4613 34.6299L53.1549 34.7831C52.7721 34.9745 52.6955 35.2904 52.7051 36.5635C52.7242 38.4204 53.423 40.0477 54.8683 41.5983C55.3278 42.0865 55.4714 42.1918 55.5767 42.1056C56.0074 41.7419 55.2895 43.35 54.6386 44.2019C54.1696 44.8049 53.4421 45.4845 52.8486 45.8674C52.6093 46.011 52.4753 46.1354 52.5423 46.1354C52.7051 46.1354 53.2028 45.8674 53.5761 45.5803C54.2462 45.0825 53.7101 45.877 53.0209 46.4226C52.7625 46.6236 52.5902 46.8151 52.6285 46.8438C52.7338 46.9108 52.5902 48.2508 52.3509 49.4378C52.1403 50.462 51.6713 51.9648 51.2597 52.8741L51.0108 53.4293L50.3216 52.721C49.0486 51.4096 47.7659 50.7396 46.1865 50.5386C45.1432 50.4045 44.6072 50.4811 44.6072 50.7396C44.6072 50.8353 44.5689 50.9214 44.5115 50.9214C44.32 50.9214 44.2051 50.4907 44.2434 49.8781C44.2817 49.2463 44.6072 48.4423 45.1049 47.734L45.2964 47.4659L45.6409 47.6765L45.9951 47.8871L45.7367 47.6095C45.5931 47.4564 45.3729 47.1118 45.2485 46.8533C44.8369 46.0206 44.7507 45.4463 44.7507 43.6467C44.7507 42.0769 44.7603 41.9429 44.9709 41.56C45.0953 41.3303 45.1719 41.1197 45.1432 41.091C45.1241 41.0623 45.0092 41.2154 44.8943 41.4356C44.789 41.6558 44.655 41.828 44.6072 41.828C44.5593 41.828 44.4253 41.6462 44.3104 41.4356L44.1094 41.0431L44.387 40.7368C44.5306 40.5741 44.588 40.4975 44.5115 40.555C44.2913 40.756 44.1286 40.6986 44.1286 40.4401C44.1286 40.0955 42.3195 37.5494 41.6207 36.8889C41.2283 36.5252 40.7305 36.2189 40.0413 35.8839C38.6917 35.2425 38.328 34.9841 38.0408 34.4959L37.8015 34.0843L38.0025 33.6919C38.1174 33.4717 38.1844 33.2707 38.1557 33.2324C38.1269 33.2037 37.9259 33.5483 37.7249 33.9982C37.2559 35.0224 36.7581 35.5393 35.3702 36.4677C34.7863 36.8506 34.0301 37.3962 33.676 37.6738L33.0346 38.1907H32.3167C31.7903 38.1907 31.5606 38.1524 31.4553 38.0375C31.1873 37.7791 30.7469 37.0803 30.4024 36.4103C29.9812 35.5584 29.6079 34.1513 29.8376 34.2949C30.0099 34.4002 30.9767 34.1609 31.3213 33.9312C31.7233 33.6632 32.0679 33.1846 32.0679 32.8878C32.0679 32.7634 31.9913 32.8112 31.819 33.0793C31.5031 33.5387 31.3787 33.644 30.7757 33.9312C30.3641 34.1418 29.5792 34.2566 29.5792 34.1226C29.5792 34.0939 29.493 33.5291 29.3877 32.8591C29.2154 31.7775 29.0144 30.0545 29.0623 30.0545C29.0673 30.0545 29.1234 30.0787 29.2091 30.1156L29.2094 30.1157C29.2855 30.1485 29.385 30.1914 29.493 30.2364C30.1248 30.514 30.7948 30.581 31.3021 30.3991C31.5318 30.3225 31.7424 30.2651 31.752 30.2842C31.7711 30.3034 31.7903 30.5427 31.8094 30.8203L31.8286 31.3372L31.3308 31.4807C31.0628 31.5669 30.8044 31.6722 30.7565 31.72C30.6799 31.8062 31.1394 31.7488 31.5797 31.6243C31.8956 31.5286 31.7711 31.7105 31.283 32.0742C30.7661 32.4379 30.948 32.4284 31.5414 32.0551C32.0296 31.7488 32.0966 31.7583 32.221 32.2465C32.2593 32.3709 32.4603 32.6294 32.6709 32.8208C32.8815 33.0123 33.2644 33.4909 33.5228 33.8833C33.7717 34.2758 33.9823 34.5629 33.9823 34.5246C33.9823 34.4193 33.609 33.7014 33.341 33.2994C33.0442 32.8591 33.0825 32.7825 33.9727 31.9402C34.3939 31.5477 34.9012 31.184 35.3415 30.9639C35.7244 30.782 35.9254 30.648 35.7722 30.6863C35.4372 30.7628 35.4372 30.648 35.8105 29.8631C36.337 28.7432 37.0932 28.1593 38.1365 28.0635C38.6055 28.0253 38.7874 27.9583 39.0554 27.7285C39.2373 27.5754 39.7063 27.2978 40.0988 27.1159C41.4293 26.5129 41.525 26.3789 41.9366 24.7229C42.1855 23.7083 42.195 23.6222 42.0515 23.3446C41.9653 23.1723 41.8792 22.7511 41.8504 22.4065C41.8122 21.8513 41.8313 21.7556 42.0132 21.5929C42.1185 21.4876 42.2142 21.2962 42.2142 21.1622C42.2142 20.3294 42.7789 19.5445 43.583 19.2669C44.2626 19.0276 45.4399 19.0467 46.11 19.3052L46.6077 19.5062L46.6651 18.7979C46.7417 18.013 46.8566 17.9173 47.182 18.3384ZM45.842 31.3084C46.0717 31.9593 46.0047 32.1125 45.2964 32.5815C43.449 33.8067 42.9034 33.7876 41.4006 32.4762C40.6061 31.7775 40.1466 31.4903 39.8499 31.4903C39.7542 31.4903 39.8499 31.5765 40.0701 31.6722C40.2806 31.7679 40.8358 32.1795 41.2953 32.5815C42.4056 33.5483 42.7598 33.7206 43.4681 33.6727C43.9563 33.6344 44.1286 33.5674 44.8943 33.041C45.3825 32.7155 45.8324 32.4475 45.909 32.4475C46.1291 32.4475 46.1674 32.0168 45.9951 31.4425C45.909 31.1362 45.8132 30.916 45.7845 30.9447C45.7558 30.9734 45.7845 31.1362 45.842 31.3084ZM46.3876 44.5082C46.579 44.8815 46.9332 45.3984 47.1629 45.6568C47.6032 46.145 48.4455 46.6236 48.838 46.6045C49.0199 46.5949 49.0007 46.5758 48.7518 46.5087C48.5795 46.4609 48.4168 46.3652 48.3785 46.3077C48.3307 46.2312 48.3594 46.2216 48.4743 46.2599C48.57 46.2982 48.8188 46.346 49.039 46.3747L49.441 46.4226L49.0964 46.2886C47.9861 45.8579 47.1916 45.2548 46.5216 44.3359C46.2918 44.0105 46.0813 43.7616 46.0621 43.7903C46.043 43.8094 46.1865 44.1349 46.3876 44.5082ZM31.4172 25.9864L31.0247 25.6322C30.7663 25.3834 30.5557 25.2685 30.3547 25.2685C30.1058 25.2685 30.0484 25.3355 29.7325 25.996C29.5411 26.398 29.3879 26.7809 29.3879 26.8574C29.3879 27.0393 29.8091 27.1255 30.0388 27.001C30.3068 26.8574 30.393 26.867 30.259 27.0297C29.991 27.3456 29.2826 27.3265 29.1008 26.9915C29.0242 26.8479 29.0721 26.733 29.3401 26.4171C29.7517 25.929 29.7612 25.795 29.3784 25.6035C29.1199 25.4599 29.0625 25.4599 28.8615 25.5939C28.7179 25.6897 28.6126 25.8811 28.5647 26.1491C28.5265 26.3788 28.4786 26.5033 28.4595 26.4363C28.4307 26.3788 28.3542 26.3214 28.2872 26.3214C28.067 26.3214 28 26.532 28 27.2978V28.0348L28.3829 28.0252C28.5935 28.0252 28.9093 27.9678 29.0912 27.8912C29.6464 27.6615 29.656 27.7476 29.1008 28.0252L28.5743 28.2837L28.6126 28.7144C28.6605 29.3366 28.9381 29.8248 29.3879 30.0545C29.5889 30.1598 29.8091 30.2459 29.8665 30.2459C29.9144 30.2459 29.9623 30.0353 29.9623 29.7578C29.9623 29.4897 30.0101 29.1834 30.0675 29.0686C30.2111 28.791 30.6419 28.3315 30.7663 28.3315C30.8142 28.3315 30.7472 28.4464 30.6131 28.59C30.1633 29.059 30.0101 29.8248 30.2781 30.1885C30.4026 30.3608 30.4409 30.3608 31.1683 30.1981C31.7714 30.0641 31.9819 29.9683 32.2404 29.7099C32.5467 29.4036 32.5658 29.3462 32.518 28.9441C32.4605 28.4081 32.1351 27.9774 31.331 27.403L30.7376 26.9819L30.6706 27.2308C30.594 27.5466 30.7567 27.9391 31.13 28.322C31.4555 28.657 31.4268 28.7048 31.0439 28.456C30.594 28.1592 30.3643 27.1637 30.6802 26.8957C30.8046 26.7904 30.8716 26.8096 31.0917 27.0202C31.3406 27.2595 31.3693 27.2595 31.6182 27.135C31.7618 27.068 31.8766 27.0393 31.8766 27.0872C31.8766 27.135 31.7905 27.202 31.6852 27.2308C31.5799 27.2595 31.4938 27.3265 31.4938 27.3648C31.4938 27.4605 32.0681 27.7859 32.1351 27.7285C32.1638 27.6998 32.2117 27.403 32.2308 27.068C32.2787 26.5129 32.2595 26.4267 32.0394 26.1683L31.7905 25.8907L31.4746 26.197C31.0822 26.5799 30.929 26.6086 31.2066 26.2544L31.4172 25.9864ZM56.6388 44.0485C57.3088 44.3644 58.132 44.4888 58.5723 44.3357C58.9169 44.2113 58.9169 44.2304 58.7159 44.8239C58.5436 45.3216 58.4096 45.3695 57.6917 45.1684C57.0695 44.9962 57.0791 45.1302 57.7013 45.3599C58.0267 45.4748 58.2948 45.5992 58.2948 45.6279C58.2948 45.7811 57.8736 46.8053 57.8162 46.8053C57.7779 46.8053 57.6917 46.7383 57.6247 46.6521C57.5481 46.5755 57.4046 46.4607 57.2993 46.4032L57.0983 46.2979L57.2897 46.5277C57.4046 46.6521 57.5481 46.834 57.6151 46.9201C57.8353 47.2169 57.5386 47.1307 56.7154 46.6617C55.7869 46.1352 56.0645 46.4798 57.0504 47.0733C57.4046 47.2934 57.663 47.5136 57.6439 47.5806C57.6247 47.6572 57.5864 48.0018 57.5577 48.3655L57.5498 48.4542V48.4542C57.526 48.7243 57.5126 48.8768 57.4329 48.93C57.3295 48.9991 57.1148 48.9014 56.6216 48.677L56.6216 48.677L56.5048 48.6239C55.8539 48.3272 55.1647 47.7433 54.7436 47.1211L54.466 46.7191L54.9924 46.0204C55.4902 45.3695 55.9018 44.5176 55.9018 44.1442C55.9018 43.7901 56.0358 43.7709 56.6388 44.0485ZM54.7149 47.9445C54.8489 47.6765 54.8489 47.6286 54.7053 47.418C54.6288 47.2936 54.5235 47.1883 54.4852 47.1883C54.4469 47.1883 54.1885 47.3893 53.9013 47.6382C53.4227 48.0498 53.394 48.1072 53.4418 48.4326C53.461 48.6336 53.6429 49.0165 53.8343 49.2941C54.2172 49.8397 54.2555 50.1173 54.0257 50.548C53.9492 50.7108 53.8439 51.1511 53.8056 51.5244C53.7577 51.9073 53.7099 52.2806 53.6907 52.3571C53.6716 52.4337 53.7099 52.4912 53.7673 52.472C53.8534 52.4624 53.8917 52.5677 53.8917 52.7687C53.8917 53.0176 53.9492 53.1133 54.1215 53.1995C54.2746 53.2665 54.3703 53.4005 54.3895 53.5728C54.4086 53.7642 54.4756 53.8504 54.6192 53.8695C54.7628 53.8887 54.8106 53.9557 54.7819 54.061C54.7628 54.1567 54.8298 54.3481 54.9446 54.4917C55.5285 55.2287 56.658 54.2237 56.9356 52.74C56.993 52.4529 57.1462 51.8307 57.2802 51.3617C57.4238 50.8735 57.5291 50.28 57.5291 49.9546V49.3803L57.0696 49.1888C56.1986 48.8155 55.7774 48.5762 55.3658 48.2125L54.9542 47.8487L54.8011 48.1455C54.7149 48.3082 54.6766 48.4805 54.7053 48.5284C54.7341 48.5858 54.7149 48.6241 54.6671 48.6241C54.5139 48.6241 54.5426 48.2795 54.7149 47.9445ZM46.6649 50.7968C47.8518 51.0649 48.8856 51.6583 49.9768 52.7112L50.8191 53.5153L50.6851 53.9365C50.6181 54.1662 50.3214 54.7022 50.0246 55.1234C49.2876 56.1667 49.2015 56.406 49.2015 57.4302C49.2015 57.9471 49.144 58.4257 49.0674 58.6172C48.7803 59.3063 47.9188 60.0051 47.5264 59.8615C47.3541 59.7945 47.0765 60.0147 46.7797 60.4454L46.5883 60.7326L46.9137 60.4167C47.4402 59.9285 47.5072 59.9859 47.4306 60.8474C47.2871 62.5129 46.8946 63.4031 45.8895 64.3891C45.4971 64.7624 45.1812 65.1069 45.1812 65.1548C45.1716 65.1931 45.0855 65.3367 44.9898 65.4611L44.7983 65.6813L43.889 65.5185C43.3913 65.4324 42.9605 65.3271 42.9414 65.2888C42.9222 65.2601 43.1615 64.8868 43.4774 64.4656C44.1474 63.585 44.5686 62.7331 44.6452 62.1205L44.7026 61.6898L44.5208 62.1684C44.1187 63.2691 43.4583 64.2742 42.7882 64.8006L42.4436 65.0782L41.9555 64.8485L41.4673 64.6283L41.4003 63.6999C41.3237 62.647 41.3907 61.6706 41.6109 60.9431C41.9076 59.9094 42.3001 59.3542 43.5636 58.1003C44.5782 57.0952 44.7983 56.8272 44.8941 56.473C45.0472 55.9083 45.0376 54.8841 44.8558 53.3621C44.6931 52.0603 44.6643 51.1414 44.7601 50.883C44.8079 50.7586 44.9706 50.7298 45.6502 50.7394C46.1001 50.749 46.5596 50.7681 46.6649 50.7968ZM44.5304 65.892C43.3913 65.6431 42.3671 65.3273 41.9268 65.1071C41.6397 64.9539 41.3716 64.8487 41.3429 64.8582C41.3046 64.8774 41.2472 65.0592 41.2089 65.2507C41.1802 65.4517 40.8452 66.5333 40.4719 67.6628C39.9263 69.3188 39.821 69.7208 39.9263 69.7974C40.156 69.9505 42.1948 69.8165 42.9032 69.5868C43.9752 69.2518 43.7168 68.9455 42.2714 68.821L41.4004 68.7444H42.348C43.3722 68.754 43.3818 68.7444 43.4871 68.1701L43.5445 67.8638L42.951 67.8543C42.6256 67.8543 42.1853 67.816 41.9747 67.7777C41.6588 67.7107 41.7545 67.6915 42.5011 67.682C43.5445 67.6628 43.5445 67.6437 42.3959 67.0406C42.0417 66.8492 41.6588 66.6003 41.5439 66.4855L41.3429 66.2557L42.3863 66.2749C42.9606 66.2749 43.3913 66.3132 43.3243 66.3515C43.2669 66.3897 42.9415 66.428 42.6064 66.428C42.0513 66.428 42.013 66.4376 42.1278 66.5908C42.2044 66.6769 42.5873 66.8971 42.9797 67.0694L43.6976 67.4044L43.8891 67.1651C43.9944 67.0406 44.2432 66.7056 44.4347 66.4376L44.7888 65.9494L44.5304 65.892ZM43.8035 69.7973C44.0619 70.0844 45.4307 71.0991 45.8806 71.3288C46.2061 71.4915 46.3688 71.5107 46.8761 71.4532L47.4887 71.3862L47.8429 71.7691C48.0343 71.9797 48.3789 72.2381 48.5991 72.353C49.0298 72.5731 49.0681 72.6401 48.9149 72.9464C48.6756 73.3868 47.9864 73.5208 47.2685 73.2719C46.9048 73.157 46.7995 73.157 46.4741 73.2719C45.8998 73.4729 45.4116 73.4442 44.1672 73.1187C42.875 72.7837 42.1475 72.7454 41.2956 72.9752C40.3001 73.2336 39.5918 73.1187 39.3429 72.6593C39.1802 72.3338 39.2377 71.5394 39.4961 70.7257L39.745 69.9504L40.0896 70.0079C40.281 70.0366 40.5012 70.0653 40.5586 70.0653C40.6447 70.0653 40.6639 70.1801 40.6256 70.4769C40.5777 70.8023 40.6065 70.9268 40.7692 71.1182L40.9606 71.3575L40.8553 71.0129C40.7787 70.7449 40.7883 70.6013 40.884 70.3907C41.0085 70.1323 41.0659 70.1131 41.7455 70.0461C42.138 70.0079 42.6931 69.893 42.9612 69.7877C43.3496 69.6323 43.4955 69.574 43.6039 69.6149C43.6691 69.6396 43.7208 69.7002 43.8035 69.7973Z" fill="#363739"/>
</svg>
