<svg width="90" height="90" viewBox="0 0 90 90" fill="none" xmlns="http://www.w3.org/2000/svg">
  <path fill-rule="evenodd" clip-rule="evenodd" d="M45 90C69.8528 90 90 69.8528 90 45C90 20.1472 69.8528 0 45 0C20.1472 0 0 20.1472 0 45C0 69.8528 20.1472 90 45 90ZM28.1796 20H28.6057L29.1265 20.2012L29.6 20.6539L29.8367 21.1569L30.1208 22.7666L30.4522 24.7284L30.5943 25.6841L30.6416 25.835L31.6359 26.1368L32.5829 26.5895L33.2457 26.992L33.8612 27.495L34.4767 28.0986L34.9502 28.6519L35.471 29.4567L35.6131 29.5573L35.7551 29.1046L36.1812 28.1489L36.7494 27.1932L37.3175 26.3883L37.8384 25.7847L38.1698 25.3823L38.738 24.829L39.4008 24.2757L39.8743 23.9235L40.7265 23.3702L41.4841 22.9678L42.289 22.6157L42.9992 22.3642L44.2302 22.0624L44.9404 21.9618L45.6506 21.9115H46.7396L48.2073 22.0624L49.5804 22.4145L50.5747 22.8169L51.8531 23.4708L52.5159 23.9235L53.1788 24.4266L53.7943 24.9799L54.2677 25.4326L54.5992 25.7847L54.9306 26.1871L55.5935 27.0926L56.1143 27.998L56.6351 29.0543L57.0139 30.0604L57.2979 31.0664L57.5347 32.2233L57.582 32.5755L59.0971 32.1227L59.7126 32.0724L59.8547 25.9859L59.9494 25.3823L60.2808 24.5775L60.6122 24.1247L60.7069 23.9738H60.8016V23.8732L61.4171 23.4205L62.1273 23.1187L62.3641 23.0684H63.0743L63.7845 23.2696L64.4 23.6217L64.8735 24.0241L65.1102 24.326V24.4266L65.9151 24.2254H66.72L67.4775 24.4266L68.093 24.829L68.6139 25.3823L68.8979 25.8853L69.04 26.2374V26.3883H69.7975L70.2237 26.4889L70.9812 26.8913L71.4073 27.2435L71.7388 27.6459L72.0228 28.1489L72.1649 28.6016L72.2596 29.1046V29.8089L72.0702 30.6137L71.8335 31.1167L71.502 31.5694L70.7918 32.2736L70.271 32.7264L69.7028 33.2797L69.182 33.7324L68.5192 34.3863L68.1404 34.7384L67.4775 35.3421L67.0988 35.6942L67.1461 35.9457L67.4302 36.3984L67.9037 37.4547L68.1877 38.6117L68.2351 38.8632V39.9195L67.9037 41.2274L67.5249 42.1831L67.3355 42.6861H68.2824L68.9926 42.7867L69.5135 42.9879L70.0816 43.34L70.6498 43.8934L71.0759 44.5473L71.36 45.3018L71.4547 45.7042V46.8109L71.2653 47.5151L70.9339 48.2193L70.413 48.8732L69.8922 49.2757L69.3714 49.5775H69.2767V58.6821L69.182 59.9899L68.8979 61.3481L68.6612 62.1529L68.3298 63.0584L67.8563 64.0644L67.3828 64.8692L66.9094 65.5231L66.3886 66.1771L65.5363 67.0825L64.8735 67.6358L64.2579 68.0885L63.5477 68.5412L62.4588 69.0946L61.4171 69.497L60.1861 69.7988L59.7126 69.8994L59.2392 69.9497L56.6351 70H31.7306L30.2155 69.9497L29.5053 69.8491L28.3216 69.5976L27.1853 69.1952L26.049 68.6419L25.2441 68.1388L24.6286 67.6861L23.871 67.0322L23.2082 66.3783L22.8767 65.9759L22.4033 65.3722L21.7878 64.4165L21.3143 63.5111L20.9829 62.7565L20.6514 61.8008L20.4147 60.8451L20.2253 59.5875L20.1306 58.33L20.0833 49.5775L19.6098 49.326L19.0416 48.8732L18.6155 48.3702L18.2367 47.7163L18.0473 47.0624L18 46.7606V45.8048L18.1894 44.9497L18.5682 44.1952L19.089 43.5916L19.5624 43.1891L20.2727 42.837L20.6988 42.7364L21.1722 42.6861L23.1135 42.6358L23.0188 41.9819L22.6873 39.3662L22.3559 37.002L22.0718 35.1911L21.9298 34.1348V32.7767L22.0245 32.0221L22.3559 30.8149L22.782 29.8089L23.1608 29.1549L23.5869 28.5513L24.0131 28.0483L24.4392 27.5956L25.0547 27.0926L25.3861 26.841V26.3883L24.96 23.7726L24.7706 22.7163L24.7233 22.3139V21.7606L24.9127 21.2072L25.2441 20.8048L25.6702 20.503L26.2857 20.3521L27.8008 20.0503L28.1796 20ZM45.9816 23.7225L47.0706 23.7728L48.491 24.0243L49.4379 24.3261L50.4322 24.7788L51.2371 25.2315L52.184 25.9358L52.8469 26.5394L53.415 27.143L53.9359 27.8472L54.3146 28.4005L54.7881 29.2557L55.1669 30.1108L55.4036 30.7647L55.6877 31.8211L55.9244 33.5816V33.8331L55.5457 34.3362L55.1669 34.9901L54.6461 36.0464L54.2199 37.2034L53.8412 38.4609L53.5097 39.8191L53.273 40.8754L53.0363 42.2335L52.8942 42.6863H47.0706L47.0232 41.9317L47.2599 41.6802L48.1595 40.976L48.8224 40.473L49.6746 39.8191L50.4322 39.2154L50.5742 38.9136V38.3603L50.3848 38.0082L50.1008 37.807H49.4852L49.0118 38.1088L48.1122 38.813L47.2599 39.4669L47.0706 39.5172V36.5494L47.4493 36.1973L48.2542 35.5937L49.1538 34.8895L49.9587 34.2859L51.3791 33.1792L51.5212 32.978L51.5685 32.4247L51.4265 32.0223L51.1424 31.7708L50.953 31.7205H50.5742L50.1955 31.8714L49.5799 32.3744L48.775 32.978L47.9228 33.6319L47.1179 34.2355H47.0706V31.1168L47.4493 30.7647L48.1122 30.2617L48.9644 29.6078L49.2012 29.2557L49.2485 29.1048V28.7527L49.0591 28.3502L48.775 28.0987L48.3489 28.0484L47.9228 28.1993L47.402 28.6017L47.1652 28.803H47.0706L47.0232 26.7406L46.8812 26.2879L46.5971 26.0364L46.1236 25.9358L45.6975 26.0867L45.4134 26.4388L45.3661 26.5394L45.3187 28.7527H45.1767L44.5612 28.2496L44.3244 28.0987L43.9457 28.0484L43.5195 28.149L43.2355 28.5011L43.1408 28.7527V29.1551L43.3775 29.5575L43.993 30.0605L44.4665 30.4126L45.1767 30.9659L45.3187 31.1168V34.1852L45.1293 34.1349L44.4665 33.6319L43.6142 32.978L42.9514 32.475L42.0991 31.8211L41.815 31.7205H41.4363L41.1048 31.8714L40.9155 32.1229L40.8208 32.3744V32.7265L41.0101 33.1792L41.815 33.8331L42.6199 34.4368L43.6616 35.2416L44.5138 35.8955L45.1767 36.3985L45.3187 36.5494V39.5172H45.1767L44.4191 38.9136L43.0934 37.9076L42.8567 37.807H42.2885L41.9571 38.0585L41.815 38.3603V38.9136L42.0518 39.316L42.8093 39.9197L43.6142 40.5233L44.4665 41.1772L45.224 41.7808L45.3187 41.8814V42.636L45.2714 42.6863H39.0689L38.8795 42.2335L38.3114 40.6742L37.5538 38.8633L37.033 37.5052L36.7489 36.5494L36.5122 35.2919L36.4648 34.8895V33.2295L36.6542 32.0223L36.8436 31.1671L37.175 30.1611L37.6485 29.1048L38.122 28.2999L38.6901 27.4951L39.2583 26.8412L39.8265 26.2376L40.6314 25.5836L41.4363 25.0303L42.5252 24.477L43.6616 24.0746L44.8926 23.8231L45.9816 23.7225ZM32.5351 32.4749L32.251 32.3743L32.2036 32.4246L32.0143 32.8773L31.6828 33.7324L31.2567 34.5372L30.6885 35.3924L30.2151 35.9457L29.789 36.2475L29.4102 36.2978L28.7 35.9457L27.9424 35.4427L27.3743 34.99L26.9955 34.6378L26.4747 34.0342L26.1906 33.6318L26.0012 33.5312L25.433 34.0342L24.6755 34.6378L23.8232 35.1409V35.2918L23.9653 36.0463L24.2494 38.0081L24.5334 40.2214L24.7702 42.1328L24.8649 42.6861H37.1751L37.1277 42.334L36.5122 40.7747L35.7547 38.9638L35.2812 37.6057L34.9498 36.2475L34.8077 34.9397V33.33L34.7604 33.1288L34.3343 33.0282L33.0085 32.6761L32.5351 32.4749ZM59.5237 33.9337H60.8968L61.749 34.0846L62.7433 34.4367L63.8323 35.0404L64.4951 35.5434L65.0633 36.0967L65.5368 36.65L65.9629 37.3542L66.1996 37.8573L66.4364 38.6118L66.4837 38.8633V39.8693L66.3417 40.4226L65.9629 41.4287L65.4421 42.485L65.3 42.6862H54.7417L54.6943 42.485L55.1205 40.2717L55.5466 38.6118L56.1147 36.9015L56.5882 35.8955L57.1564 35.0404L57.6772 34.5876L58.4347 34.1852L59.1923 33.984L59.5237 33.9337Z" fill="#363739"/>
</svg>
