<svg width="90" height="90" viewBox="0 0 90 90" fill="none" xmlns="http://www.w3.org/2000/svg">
  <path fill-rule="evenodd" clip-rule="evenodd" d="M45 90C69.8528 90 90 69.8528 90 45C90 20.1472 69.8528 0 45 0C20.1472 0 0 20.1472 0 45C0 69.8528 20.1472 90 45 90ZM30.1144 24.2648C28.0747 22.051 29.2577 18.1563 32.3581 16.7624C35.744 15.2455 38.7219 16.0244 40.1089 18.8122C40.9248 20.4111 40.9248 20.4931 40.2313 20.2061C38.4772 19.4682 35.4176 19.5502 33.7859 20.4111C32.8884 20.8621 32.5213 21.108 32.97 20.9851C34.357 20.5341 37.9876 20.2881 39.1299 20.5751C40.0681 20.8211 40.1497 20.9441 39.6602 21.436C38.9259 22.133 37.9061 22.256 35.4176 21.928C34.3162 21.764 32.4805 21.805 31.3382 22.01C29.7065 22.297 29.5433 22.379 30.5224 22.461L31.7462 22.5429L30.5224 22.9119C29.5025 23.1989 29.6249 23.2399 31.1751 23.0759C32.1949 22.9939 34.357 23.0349 35.948 23.1579L38.8851 23.4039L38.0284 24.8798L37.1718 26.3557L38.1916 25.1258C38.8035 24.4288 39.2523 23.6909 39.2931 23.4449C39.2931 23.1579 39.6602 22.5429 40.0681 22.01L40.8432 21.0261L41.088 22.051C41.2104 22.6249 41.3735 23.5269 41.4143 24.1008C41.4959 24.6748 41.6591 25.0848 41.8631 25.0028C42.0262 24.9618 43.3724 24.9208 44.841 24.9208C47.1255 24.9208 47.4926 24.8388 47.3703 24.2238C47.2887 23.8549 47.0031 23.4859 46.6768 23.3629C46.3504 23.2399 46.228 23.3629 46.3912 23.6499C46.7991 24.2648 44.1475 23.7319 43.454 23.0349C43.1685 22.7069 42.8421 21.6 42.679 20.4931C42.475 18.6482 42.5566 18.4432 43.6172 17.5823C44.6371 16.7624 45.1266 16.6804 47.2479 16.8443C49.9403 17.0493 51.5312 17.7053 53.2854 19.3862L54.4276 20.4931L53.6117 21.764C53.0814 22.6249 52.3879 23.1169 51.6536 23.1989C50.2666 23.3629 49.4915 24.0188 50.185 24.4288C50.4298 24.5928 52.3063 24.6338 54.346 24.5108C57.4464 24.3468 58.0991 24.4288 58.2622 24.9208C58.4254 25.4537 59.0373 25.4947 61.9745 25.2898C63.8918 25.1258 65.5644 24.8798 65.6867 24.7568C65.8499 24.6338 64.2182 24.4698 62.0969 24.4698L58.2622 24.3878L62.3416 24.0598C66.421 23.7729 67.3185 23.9368 66.9106 25.0438C66.7066 25.6177 61.1994 26.1507 55.1619 26.1507C51.9392 26.1507 50.9193 26.4377 51.5312 27.1346C51.8168 27.5446 51.6128 27.5856 50.6338 27.4626C49.7771 27.3396 49.4507 27.4216 49.6547 27.7496C49.8179 27.9956 49.7363 28.2006 49.4915 28.2006C49.206 28.2006 49.0836 28.4465 49.206 28.7745C49.3284 29.1025 49.1652 29.4715 48.8388 29.5945C48.3493 29.7584 48.2677 29.6354 48.4717 29.0205C48.8388 27.8316 48.0638 27.9956 47.5334 29.2255C47.2104 29.9355 47.0373 30.2842 47.1425 30.4254C47.2499 30.5696 47.6474 30.4977 48.4717 30.3734C49.8587 30.1684 51.5312 30.9884 51.5312 31.9313C51.5312 32.4233 53.8157 35.703 54.7132 36.564C55.2027 36.9739 55.4475 37.5479 55.3251 37.9579C55.1619 38.3268 55.2435 38.4908 55.4882 38.3268C55.937 38.0399 57.5279 39.5567 57.12 39.9257C56.9976 40.0487 56.6713 39.7617 56.4265 39.2698C56.0594 38.6138 55.8554 38.4908 55.6106 38.8598C55.4067 39.1878 54.9987 38.8188 54.346 37.6709C53.6117 36.318 53.3262 36.113 53.0406 36.605C52.8774 36.9329 52.8366 37.6299 52.959 38.1628L53.2446 39.0648L52.5511 38.1218C52.0208 37.3839 51.98 37.0559 52.3471 36.605C52.5919 36.277 52.7551 35.703 52.6735 35.293C52.5511 34.7191 52.3471 34.9241 51.8576 35.99C51.5312 36.7689 50.8377 37.7529 50.389 38.2038C49.8995 38.6138 49.6139 39.1468 49.7363 39.3108C49.8587 39.5158 50.389 39.1878 50.9601 38.5318C51.6944 37.7529 51.9392 37.6299 51.776 38.1628C51.6536 38.5728 51.5312 39.1878 51.5312 39.5158C51.5312 39.8847 51.3681 40.0077 51.1233 39.8847C50.9193 39.7617 50.7154 39.8847 50.7154 40.2127C50.7154 40.7457 52.5103 42.5495 53.0814 42.5495C53.2446 42.5495 53.8973 43.0825 54.5092 43.7794C55.6922 45.0504 56.4265 45.3373 56.4265 44.5994C56.4265 44.3534 55.8554 43.1645 55.1619 41.9346C53.5709 39.1058 53.8565 38.9828 55.6514 41.7706L56.9568 43.8614L57.4872 42.6725L57.9767 41.5246L58.0175 43.0005C58.0583 44.7634 56.916 46.4443 55.3659 46.8132C54.55 47.0182 53.7749 46.8132 52.3063 45.8703C51.2049 45.1734 50.3074 44.8044 50.3074 45.0094C50.3074 45.2144 50.6746 45.5833 51.1233 45.8293C51.7352 46.1573 51.9392 46.6902 51.9392 47.9202C51.9392 48.9861 52.1431 49.642 52.5511 49.765C52.9182 49.929 53.163 50.544 53.163 51.3229C53.163 51.7961 53.1583 52.1508 53.2458 52.481C53.5224 53.524 54.7196 54.3228 59.894 57.8415C62.3416 59.5223 64.9117 62.5561 65.238 64.196C65.6051 66.0819 64.7077 69.7716 63.5654 70.8375C62.7088 71.6165 62.26 71.6985 59.3229 71.6165C57.12 71.5345 55.8554 71.6575 55.529 71.9855C54.8355 72.6824 54.2644 72.6004 50.8377 71.5755L47.8598 70.6736V68.7057V66.7378H46.3504C44.3923 66.7788 43.3317 67.6398 41.9855 70.3046C40.9248 72.4364 39.3338 73.7073 37.7837 73.7073C37.2534 73.6664 39.701 72.5184 40.3945 72.4774C40.4353 72.4774 40.4353 72.1085 40.3945 71.6575C40.3537 70.9195 40.0273 70.8375 37.2534 70.7556L34.1938 70.6736L36.7638 70.5506C38.1508 70.4686 39.2523 70.2636 39.1299 70.0996C39.0075 69.9356 39.4154 69.7306 40.0273 69.6896C40.5985 69.6486 41.292 69.4026 41.4959 69.1977C41.7815 68.9107 40.9656 68.7877 39.0483 68.7467C37.0086 68.7057 36.5191 68.6237 37.2534 68.3777C37.8245 68.2137 39.0483 68.0497 40.0273 68.0087C41.6591 67.9678 41.7407 67.9268 41.5775 66.9018C41.4143 66.1229 41.5367 65.9179 41.9855 66.0819C42.3118 66.2049 42.5566 66.0409 42.5566 65.7129C42.5566 65.3439 41.8631 65.057 40.6393 64.852C39.1299 64.647 38.8851 64.483 39.497 64.278C40.1089 64.032 39.8642 63.909 38.4772 63.786L36.6414 63.5811L38.5588 63.5401C39.6194 63.4991 40.9248 63.6221 41.4959 63.868C42.3934 64.196 42.5566 64.155 42.5566 63.5401C42.5158 63.1711 41.9855 62.2282 41.3327 61.4492C40.2721 60.2193 39.905 60.0553 38.1916 60.0553C37.1495 60.0553 36.6738 60.0553 36.6663 59.9961C36.66 59.9463 36.9839 59.8548 37.5797 59.6863C38.6811 59.3994 39.2931 59.4813 40.5577 60.1783C42.1078 60.9572 42.1486 60.9572 41.7407 60.2193C41.2104 59.1534 37.6205 58.0055 36.0295 58.3334C35.2952 58.4974 34.9281 58.7844 35.0913 59.0714C35.2545 59.3584 35.0913 59.3994 34.561 59.1944C34.153 59.0304 33.949 59.0304 34.1122 59.1944C34.2754 59.3994 33.9898 59.7683 33.5003 60.0963L32.5621 60.6293L33.5003 60.4243C33.9235 60.3503 34.1558 60.3097 34.1898 60.3739C34.2311 60.4521 33.9786 60.6856 33.4187 61.2032C32.1133 62.4331 32.0725 62.8431 33.2963 62.1872L34.1938 61.6952L33.2963 62.7201C31.9093 64.196 32.1541 64.442 33.8675 63.2531C34.7241 62.6791 35.6624 62.2282 36.0295 62.2282C36.3559 62.2282 35.8664 62.5971 34.9281 63.0891C32.8884 64.073 32.5213 64.483 32.1133 66.1229C31.8278 67.2708 31.8686 67.3118 32.5621 66.7378C32.9072 66.468 33.0901 66.3251 33.1193 66.3515C33.1521 66.3813 32.9895 66.6264 32.6436 67.1478C32.2765 67.7628 32.0317 68.8697 32.0725 69.8126C32.1541 71.2065 32.3581 71.5345 33.5003 72.0675C35.0097 72.8054 35.2545 73.4614 33.7859 72.8874C33.2148 72.6824 32.766 72.6414 32.766 72.8464C32.766 73.2564 34.1938 73.7073 35.5808 73.7073C36.1111 73.7073 36.4783 73.7893 36.3559 73.9123C36.2335 74.0353 34.9281 74.0353 33.4595 73.8713C30.0736 73.5434 29.7881 73.0514 30.3184 68.3367C30.5224 66.4919 30.8895 64.811 31.0935 64.524C31.5014 64.032 31.3382 62.0642 30.7671 59.8503C30.5224 59.1124 30.4816 57.5545 30.6039 56.4476C30.7671 55.2176 30.6447 54.2337 30.3592 53.8647C30.1144 53.5778 29.9104 52.7578 29.9512 52.1429C29.992 51.4869 29.8697 50.298 29.7473 49.5191L29.5025 48.0841L29.9104 49.3961C30.4816 51.2409 30.9711 51.3639 31.2974 49.806C31.5014 48.7401 31.379 48.3301 30.6447 47.7562C30.1144 47.3052 29.6657 47.1822 29.5841 47.4282C29.3801 48.0022 25.5863 43.6155 24.1585 41.1146C22.8123 38.7368 22.6083 36.482 23.7098 35.293C24.9336 33.9811 27.1773 32.0543 26.8509 32.6692C26.6877 32.9972 26.7693 33.3662 27.0957 33.5712C27.5036 33.8172 27.3812 33.9401 26.6061 33.9401C26.035 33.9401 25.1376 34.3911 24.6072 34.9651C24.0769 35.539 23.7914 35.99 23.9545 35.99C24.1585 35.99 24.0769 36.277 23.7914 36.605C23.2202 37.3019 23.5874 38.0399 24.5256 38.0399C25.0968 38.0399 25.0968 38.0809 24.4849 38.5728C23.8321 39.0238 23.8321 39.2288 24.8928 41.3196L26.035 43.5745L26.2798 42.3446C26.4169 41.7538 26.4882 41.4468 26.5298 41.4508C26.5748 41.4551 26.5849 41.8235 26.6061 42.5905C26.6469 43.4925 26.9733 44.3534 27.4628 44.8044C27.9115 45.2144 28.2787 45.3783 28.2787 45.1734C28.2787 44.9684 28.4827 45.1324 28.7274 45.5423C29.3393 46.5673 32.1541 48.2891 33.2556 48.2891C34.8057 48.2891 37.4573 45.0094 38.8851 41.2786C39.6194 39.3108 40.0273 37.6709 39.8642 37.2609C39.6602 36.8099 39.4562 37.2609 39.2523 38.5728C38.8443 41.2376 38.4364 41.5656 38.7627 38.9828C38.8851 37.7119 38.8035 36.605 38.4772 35.99L37.9876 35.0471L39.2523 35.949C39.9458 36.441 40.5169 36.687 40.5169 36.482C40.5169 35.99 39.3338 35.0061 37.7837 34.1861C36.1519 33.3662 35.0097 33.3252 36.5599 34.1861C38.0284 34.9651 37.9469 35.2111 36.4375 34.6371C35.4176 34.2271 35.0913 34.2681 34.8057 34.7601C34.2754 35.58 34.2754 36.113 34.8057 35.785C35.4584 35.375 35.2545 35.785 34.1938 37.0559C33.2963 38.0809 33.174 38.6548 33.174 41.3196C33.174 43.4515 33.0516 44.1894 32.766 43.7794C32.5621 43.4515 32.3581 42.4675 32.3581 41.6476C32.3581 40.5407 32.1949 40.1717 31.787 40.3357C31.0935 40.6227 30.3184 42.2626 30.2776 43.6975C30.2368 44.5584 30.1552 44.4354 29.9104 43.1645C29.7065 42.1396 29.7473 41.3196 29.992 40.9916C30.8895 39.9257 29.7881 39.9257 28.8498 41.0326C28.3195 41.6476 27.8707 42.0166 27.8707 41.8116C27.8707 41.6066 28.3195 41.0326 28.8906 40.4997C29.6657 39.7617 29.7881 39.4338 29.4209 39.1878C29.0538 38.9828 29.2169 38.8598 29.8289 38.8598C31.0935 38.8598 30.6039 38.1628 29.0538 37.8349C28.1155 37.6299 27.9115 37.4249 28.2787 37.0149C28.605 36.605 28.4827 36.318 27.7892 35.826C27.2996 35.457 27.0957 35.1701 27.3812 35.1701C27.626 35.1701 28.4419 35.826 29.1354 36.605C29.8697 37.4249 30.8079 38.0399 31.2974 37.9989C31.9093 37.9989 31.9501 37.9169 31.5422 37.7529C29.6657 37.0559 28.9314 34.9651 29.9512 33.0792C30.196 32.5872 30.2776 31.9723 30.1552 31.6443C29.9512 31.1113 29.7473 31.1113 28.6866 31.6853C28.0339 32.0133 27.4628 32.2183 27.4628 32.1363C27.4628 32.0133 28.0339 31.6033 28.6866 31.2753C29.3801 30.9064 30.1144 30.1684 30.3184 29.5945C30.6447 28.7335 30.8895 28.6515 31.8278 28.8565C32.766 29.1025 32.8884 29.0615 32.5213 28.5695C32.2765 28.2415 32.1133 27.6676 32.1949 27.2576C32.2357 26.7656 32.1133 26.5607 31.787 26.6837C31.0119 27.0116 28.8906 25.4947 29.5433 25.1258C29.8289 24.9208 30.2368 25.0848 30.6039 25.5357C30.8895 25.9867 31.1343 26.1917 31.1343 26.0277C31.1343 25.8637 31.5014 25.9047 31.9093 26.1507C32.3989 26.3967 32.6436 26.8886 32.5621 27.3396C32.4397 27.9136 32.766 28.2415 33.5819 28.5695C34.2346 28.7745 35.1729 29.3485 35.6624 29.7584C36.6007 30.7014 36.9678 30.7014 38.7219 29.7174C40.1089 29.0205 40.884 27.3806 39.8642 27.3806C39.5378 27.3806 39.1707 27.0936 39.0483 26.7656C38.8443 26.2737 38.6404 26.2327 38.2324 26.6017C37.9469 26.8476 37.4573 26.8886 37.2126 26.7247C36.8862 26.5607 36.8454 26.6017 37.0086 26.8886C37.2126 27.2166 36.8454 27.3806 35.8256 27.3806C34.4794 27.3806 34.3978 27.2986 34.8057 26.5607C35.2952 25.6177 35.8256 25.4537 35.4584 26.3557C35.1321 27.2576 35.54 27.0936 36.0703 26.1097C36.3967 25.4947 36.3967 25.3307 36.0703 25.4947C35.4584 25.8637 35.4992 25.2078 36.1111 24.5928C36.3559 24.3468 36.4783 24.0188 36.3967 23.8959C36.2743 23.7729 35.5808 24.5108 34.8465 25.5357C34.1122 26.5607 33.4595 27.3806 33.3371 27.3806C33.2148 27.3806 33.2148 27.2166 33.3779 27.0116C33.5003 26.8066 33.4187 26.5197 33.2148 26.3557C32.97 26.2327 33.1332 25.7817 33.5819 25.3307C34.0306 24.8798 34.3978 24.3058 34.3978 24.0598C34.3978 23.8139 34.0306 24.0188 33.6227 24.5518C32.8884 25.4537 32.8068 25.4537 32.5621 24.7978C32.3989 24.4288 32.0725 24.1008 31.8686 24.1008C31.6238 24.1008 31.5422 24.3878 31.7054 24.7158C32.0725 25.6997 31.1751 25.4127 30.1144 24.2648ZM52.4695 22.215C52.3063 22.42 52.4287 22.461 52.6735 22.338C53.7749 21.641 52.2655 19.0172 50.2258 17.9923C48.1045 16.9673 46.1464 16.8853 45.249 17.7463C44.9226 18.0743 44.4739 18.3612 44.2291 18.3612C43.9844 18.3612 43.7804 18.5252 43.7804 18.7712C43.7804 18.9762 44.3923 19.2222 45.1266 19.2222C45.7446 19.265 46.0397 19.2855 46.0412 19.3186C46.0425 19.3489 45.7982 19.3898 45.3306 19.4682C44.7594 19.5502 44.0252 19.9191 43.6988 20.2881C43.2093 20.9031 43.2909 20.9441 44.3107 20.6571C45.249 20.4521 45.4529 20.4931 45.3306 21.108C45.2082 21.764 45.5753 21.846 48.9612 21.846C51.0825 21.846 52.5919 22.01 52.4695 22.215ZM48.6757 27.1756C48.6757 26.7656 48.2677 26.5607 47.4926 26.5607C46.8399 26.5607 45.8201 26.4787 45.1674 26.3557C44.4331 26.2327 43.658 26.3967 43.2093 26.7656C42.7605 27.0936 42.067 27.2576 41.6183 27.1346C41.0472 26.9706 40.884 27.0936 40.9656 27.6676C41.0064 28.0776 40.9248 28.7335 40.7616 29.1025C40.3945 29.8814 41.2104 31.6033 41.7407 31.2753C41.9447 31.1523 42.5158 31.4393 42.9645 31.8903C44.1883 33.1202 44.841 32.7102 43.8212 31.3983C42.6382 29.9224 42.7605 29.5125 43.9844 30.6604C44.8818 31.5213 45.0042 31.5623 45.0042 30.8654C45.0042 30.4554 44.7186 29.7584 44.3107 29.3485C43.7804 28.7745 43.7804 28.6105 44.2291 28.6105C45.1674 28.6515 46.3912 29.7174 45.7385 29.9634C45.4529 30.0454 45.3306 30.2914 45.4937 30.4554C45.9425 30.9474 47.0439 29.8814 47.0439 28.9795C47.0439 28.5285 46.7583 28.2006 46.3912 28.2006C46.0648 28.2006 45.9017 27.9956 46.0648 27.7496C46.1872 27.5036 46.8399 27.3806 47.4926 27.5446C48.3901 27.7086 48.6757 27.6266 48.6757 27.1756ZM54.1828 55.7096L52.5511 55.6276L53.7749 55.0947C54.6316 54.7257 54.7948 54.5207 54.346 54.3567C54.0197 54.2337 52.959 54.6027 52.0208 55.1357C50.7154 55.9146 50.3074 56.4066 50.389 57.0215C50.5114 57.8005 50.7969 57.8825 53.2446 57.9235C56.6305 58.0055 57.1608 58.3334 54.3868 58.7024C51.98 59.0304 51.776 59.5223 53.8973 60.1373C55.0803 60.4653 55.1211 60.5473 54.1828 60.4243C53.5301 60.3013 52.6327 60.0963 52.2655 59.9733C51.8168 59.8093 51.5312 59.8503 51.5312 60.1373C51.5312 60.3833 52.0208 60.6703 52.6735 60.8343C53.2854 60.9982 54.142 61.3262 54.5908 61.6132C55.0803 61.9002 56.4673 62.3511 57.7727 62.6381C59.0373 62.8841 60.098 63.2121 60.098 63.3351C60.098 63.6631 54.346 63.2121 53.367 62.8021C52.6735 62.5151 52.6327 62.5561 53.0406 63.1301C53.3262 63.4581 53.4486 63.827 53.3262 63.991C53.2038 64.114 54.7132 64.688 56.7121 65.3029C62.2746 67.0253 63.5156 67.4337 63.5876 67.2831C63.6133 67.2294 63.4902 67.1045 63.3615 66.9428C63.0759 66.6148 62.5048 66.2459 62.0561 66.0819C61.4442 65.9179 61.3626 65.7539 61.7297 65.5079C62.0969 65.3029 61.5665 64.975 60.2611 64.565C58.303 63.95 58.303 63.909 59.894 64.155C60.7915 64.278 62.0153 64.606 62.6272 64.893C63.6878 65.4259 63.7286 65.3849 63.3615 64.647C63.1167 64.237 61.9745 63.3761 60.8731 62.8021C58.0175 61.3672 58.6702 61.0392 61.6073 62.4741C62.1587 62.7339 62.7028 62.9936 63.1628 63.2132C63.7918 63.5135 64.2635 63.7387 64.3813 63.786C64.6261 63.868 64.2182 63.3761 63.5247 62.6381C62.7904 61.9002 61.2402 60.9572 60.0572 60.5063C57.9359 59.7683 57.9359 59.7273 59.4861 59.9323C60.6283 60.0963 60.9138 60.0143 60.5059 59.7683C60.1796 59.5633 60.0572 59.3584 60.2611 59.3584C60.9546 59.3584 59.5676 58.1284 58.8334 58.1284C58.4254 58.1284 57.8951 57.7595 57.6503 57.3085C57.2832 56.6525 56.7529 56.4886 54.8763 56.4476L54.8475 56.4465C52.6324 56.3656 52.5987 56.3643 54.1828 56.0786L55.8146 55.7916L54.1828 55.7096Z" fill="#363739"/>
</svg>
