<svg width="90" height="90" viewBox="0 0 90 90" fill="none" xmlns="http://www.w3.org/2000/svg">
  <path fill-rule="evenodd" clip-rule="evenodd" d="M45 90C69.8528 90 90 69.8528 90 45C90 20.1472 69.8528 0 45 0C20.1472 0 0 20.1472 0 45C0 69.8528 20.1472 90 45 90ZM20.9031 26H19.9557L19.3767 26.132L18.9557 26.2905L18.561 26.4754L18.1662 26.7131L17.7189 27.03V27.0828H17.6662L17.3504 27.3733L17.1136 27.6374L16.7978 27.9807L16.561 28.2976L16.3504 28.5881L16.0346 29.0899L15.8241 29.486L15.5083 30.1727L15.1662 31.1762L15.0083 31.7836L14.8767 32.5495L14.7715 33.5795V34.6622L14.8504 35.3489L14.9557 35.9563L15.1136 36.5373L15.3767 37.2239L15.5873 37.6465L15.8241 38.0426L16.061 38.3595L16.3241 38.65L16.6925 38.9669L17.0873 39.231L17.6925 39.5215L18.1136 39.6272L18.7452 39.7328L19.0466 39.8062L19.0402 39.8068L19.0146 39.8594L19.2963 39.8857H19.3735L19.6136 39.9441L20.6136 40.1554L21.5346 40.3666L22.6399 40.6043L23.0873 40.6571L23.4557 40.6307L23.6662 40.5779L24.061 40.4459L24.3767 40.2874L24.8504 39.9969L25.061 39.8385L25.4294 39.548L25.7978 39.1782L26.1662 38.7821L26.4557 38.4124L26.6662 38.1483L26.9294 37.7257L27.1925 37.2503L27.5346 36.5109L27.6925 36.0883L27.9294 35.2961L28.0873 34.6094L28.1925 33.9228L28.2715 32.8664V32.3118L28.1925 31.1762L28.1136 30.6744L27.982 30.1198L27.7189 29.3276L27.5346 28.9314L27.2715 28.4561L26.9557 28.0335L26.6399 27.7166L26.2715 27.4525L25.9294 27.3205L24.0346 26.8187L23.2715 26.6074L21.6136 26.1585L20.9031 26ZM59.1586 29.1121L58.5781 29.0858L57.7602 29.1645L57.3908 29.2433L56.5993 29.5057L56.2035 29.6894L55.7286 29.9518L55.3592 30.2143L55.069 30.4505L54.8052 30.7129L54.6205 30.9228L54.383 31.1853L54.0664 31.6314L53.8817 31.9726L53.5651 32.6287L53.3804 33.206L53.2221 34.0195L53.1693 34.4919V35.1218L53.2221 35.6466L53.3804 36.4602V36.7488L53.3013 36.985L52.8527 38.2709L52.457 39.2419L52.1403 39.8455L51.9029 40.2654L51.5335 40.8165L51.2433 41.1839L50.7684 41.6563L50.5309 41.84L50.1351 42.0762L49.7921 42.2074L49.3964 42.3911L48.9742 42.6011L48.5257 42.811L47.8925 43.1784L47.0218 43.7558L46.5205 44.1232L46.1511 44.4119L45.9664 44.3856L45.1485 44.3069H44.2514L43.9084 44.3331L43.5654 44.3856L43.0377 44.4906L42.5628 44.648L41.8504 44.963L41.3228 45.2779L40.8742 45.5928L40.5048 45.9077L40.2938 46.0914L40.0299 46.3539L39.7133 46.7213L39.4231 47.0624L39.1856 47.3773L38.9218 47.7447L38.7107 48.1122L38.6579 48.2434L38.9482 48.2171L39.6605 48.1646L40.4257 48.1909L40.7951 48.2434L41.5338 48.4008L42.0351 48.5583L42.0879 48.637L41.2172 48.532H40.6368L39.9508 48.6108L39.1065 48.7682L38.4469 48.9519L37.9719 49.1356L37.4706 49.3456L36.7846 49.713L36.3889 49.9492L35.914 50.2903L35.6765 50.5003L35.6501 50.6053L35.7029 50.7102L35.9667 51.4713L36.1778 52.1536L36.3097 52.9409L36.3889 53.7544V54.463L36.3097 55.3028L36.2042 56.0638L36.125 56.3263L36.0459 56.405L36.0723 55.9064L35.9931 54.8304L35.8612 53.597L35.782 53.1246L35.4918 51.9699L35.2807 51.3138L34.9905 50.5265L34.6739 49.8704L34.4628 49.4506L34.1462 48.8994L33.7241 48.2696L33.4866 47.9547L33.1964 47.5873L33.0117 47.3773L32.7478 47.0887L32.5104 46.8L32.2729 46.5376L31.9827 46.1702L31.6661 45.724L31.4022 45.3041L31.1648 44.858L30.769 43.992L30.4788 43.1784L30.2413 42.3911L30.0039 41.3676L29.8456 40.5016L29.74 39.5306L29.6873 38.1135L29.9247 38.1397H30.6371L30.8745 38.1135L31.2175 38.0348L31.7716 37.8511L32.2201 37.5886L32.6159 37.2999L32.8534 37.0375L33.1436 36.6701L33.4074 36.1715L33.5658 35.7253L33.6713 35.1218V34.5706L33.5921 34.0458L33.4866 33.7309L33.2491 33.2322L32.9853 32.8386L32.7742 32.6024L32.5104 32.3662L32.141 32.1038L31.5869 31.8414L29.397 31.2378L28.9749 31.1065L28.9485 31.2115L29.0276 31.5789L29.1068 32.3137V33.4684L29.054 33.9933L28.9485 34.6231L28.7638 35.4892L28.6055 36.0403L28.2625 36.9325L27.814 37.8248L27.4446 38.4022L27.1544 38.7958L26.8641 39.1632L26.5211 39.5306L26.0726 39.9505L25.7824 40.1605L25.6504 40.2654V40.5279L25.5977 41.3939L25.5713 42.6011V44.753L25.5977 45.7765L25.6768 47.1149L25.756 48.1122L25.8879 49.2144L26.0726 50.3428L26.2837 51.55L26.653 53.0721L26.8905 53.8594L27.2071 54.8042L27.5501 55.6964L27.8931 56.4837L28.3416 57.376L28.6583 57.9271L28.9749 58.452L29.3179 58.9768L29.6873 59.5017L30.0302 59.9478L30.3996 60.394L30.5843 60.6039L31.1912 61.2075L31.5869 61.5749L31.9563 61.8898L32.2993 62.126L32.6423 62.2572H33.0644L34.1462 62.0735L35.0169 61.8898L36.125 61.5749L36.9957 61.2862L37.9456 60.9188L38.7371 60.5777L39.3439 60.2628L39.8452 60.0003L40.4521 59.6592L41.0061 59.318L41.6921 58.8719L42.1934 58.5045L42.642 58.1633L43.0114 57.8746L43.2752 57.6384L43.5654 57.4022L44.6208 56.3525L44.8583 56.0638L45.0957 55.8014L45.4387 55.3815L45.597 55.1716L45.94 54.6992L46.2302 54.2531L46.7843 53.3083L47.1009 52.626L47.312 52.1011L47.3912 51.8649H47.4439L47.2592 52.5735L47.2329 52.7834L47.312 52.9671L47.6022 53.4395L47.8133 53.8069L48.2355 54.4105L48.6048 54.9091L48.8951 55.2503L49.1325 55.539L49.8185 56.2213L50.0296 56.405L50.2934 56.6412L50.6628 56.9299L51.0322 57.1923L51.5071 57.481L51.9557 57.6909L52.5097 57.9271L53.0638 58.0846L53.5915 58.1895L54.3302 58.2683H55.0162L55.7286 58.1895L56.5465 58.0321L56.9951 57.9009L57.9449 57.5335L58.4462 57.271L58.842 57.0348L59.3433 56.6674L59.6335 56.4313L59.9237 56.1426L60.1612 55.8277L60.2667 55.5652L60.3195 55.1453L60.3723 54.4105V53.5707L60.3459 52.9671L60.2667 51.8912L60.1876 51.2613L60.0293 50.2116L59.8446 49.3456L59.7918 49.0831L59.9237 49.3193L60.2667 50.3953L60.4778 51.1301L60.768 52.3635L60.8736 53.0459L60.9527 54.0169V55.9589L61.0055 56.0638L61.2957 56.5625L61.5596 56.9299L61.7706 57.1398L62.14 57.4285L62.5622 57.6384L63.0371 57.7959L63.5384 57.9009L63.9869 57.9271H64.3827L64.6729 57.9009L64.8048 57.7434L65.1478 57.1661L65.3853 56.6674L65.6755 55.9326L65.8602 55.2241L65.9921 54.4893L66.0713 53.6495V52.9671L66.0185 52.2586L65.9394 51.76L65.7811 51.0251L65.6491 50.6053L65.3589 49.8442L65.0687 49.2669L64.8048 48.8207L64.4882 48.3483L64.2244 48.0072L64.0133 47.7447L63.1426 46.8787L62.9315 46.695L62.5886 46.4063L61.8762 45.8552L61.4276 45.5403L60.8736 45.1729L60.4514 44.9105L59.9237 44.5693L59.3433 44.2019L59.0267 43.992L58.9211 43.9657L58.842 44.4119L58.6573 45.1467L58.3934 45.934L58.3143 46.2226H58.2615V45.1467L58.2879 44.9105L58.3934 44.2019L58.5517 43.6508L58.8684 42.8897L59.1322 42.4174L59.2377 42.3911L59.9765 42.6011L60.4778 42.6798H60.9791L61.111 42.6536L61.3485 42.5748L61.7179 42.3649L61.9553 42.1549L62.1928 41.8925L62.483 41.3676L62.7205 40.8165L62.9579 40.2129L63.4592 38.927L63.6439 38.2709L63.8022 37.3524L63.9605 36.7226L64.3299 35.5941L64.4355 35.043V34.1508L64.3299 33.5734L64.1452 32.9698L63.9869 32.5499L63.7495 32.1038L63.4592 31.6314L63.1162 31.1853L62.6413 30.7129L62.0609 30.2405L61.5596 29.9256L61.0319 29.6369L60.2931 29.3482L59.739 29.1908L59.1586 29.1121ZM46.9224 54.1571L47.0011 54.1834L47.2633 54.6302L47.4731 54.9456L47.8403 55.445L48.1549 55.813L48.391 56.1021L48.863 56.5752V56.6278L48.9679 56.6803L49.1515 56.8643L49.4399 57.1009L49.7022 57.3374L50.1218 57.6528L50.5676 57.9683L50.9609 58.2048L51.3805 58.4414L52.0099 58.7305L52.5082 58.9145L53.2949 59.1247L53.8194 59.2299L54.475 59.3087H55.3928L56.0747 59.2036L56.9663 58.9933L57.517 58.8093L58.1988 58.4939L58.566 58.2837L58.9593 58.0208L59.3265 57.7317L59.6411 57.4426L59.7723 57.3637L59.7198 58.0208L59.5625 58.8882L59.4051 59.4664L59.2478 59.8607L59.038 60.2812L58.8544 60.5966L58.5397 61.0172L58.0415 61.5166L57.4645 61.8845L57.1498 62.0422L56.3631 62.3051L55.7337 62.4365L54.7372 62.5153L53.9505 62.4891L53.3473 62.4365L52.718 62.3314L52.0361 62.1737L51.4067 61.9897L50.8823 61.7794L50.4627 61.5954L50.0431 61.3589L50.0955 61.464L50.3578 61.6743L50.7774 61.9108L51.2232 62.1737L51.8788 62.4891L52.6131 62.7782L53.2162 62.9359L54.0029 63.0936L54.6323 63.1724H55.6026L56.3631 63.0673L56.9663 62.9359L57.517 62.7519L58.0677 62.4628L58.3299 62.2788L58.5922 62.0422L58.8544 61.7794L59.0904 61.4377L59.1429 61.4114L59.0904 61.7005L58.9593 62.1999L58.6709 62.8833L58.4086 63.3827L58.1464 63.777L57.8841 64.1187L57.6481 64.3815L57.2547 64.7757L56.8352 65.0912L56.3631 65.354L55.9698 65.5117L55.6026 65.6168L54.9995 65.722L54.711 65.7482H53.6358L52.9278 65.6694L52.141 65.538L51.5641 65.3803L50.9085 65.1437L50.4627 64.9597L50.2791 64.8809L50.4102 65.0123L50.8298 65.2489L51.5903 65.6431L52.2197 65.9059L52.7442 66.0637L53.5047 66.2476L54.0554 66.3265H55.1044L55.7862 66.2214L56.3893 66.0637L56.9138 65.8534L57.3334 65.6168L57.6481 65.4066L58.0152 65.0912L58.0677 65.0649L58.0415 65.1963L57.6743 66.2214L57.2023 67.2727L56.9401 67.7195L56.7827 67.9561L56.7303 68.0612L56.8089 68.0349L57.0187 67.7458L57.2023 67.5618L57.5432 67.115L57.753 66.8259L57.9366 66.5368L58.1464 66.1951L58.4086 65.7482L58.6446 65.3014L58.6971 65.1963H58.7495L58.9331 65.4328L59.1953 65.6168L59.4838 65.7482L59.7198 65.8271L59.9034 65.8534H60.5065L61.0573 65.7745L61.031 65.8797L60.5852 67.1676L60.2181 68.2452L60.0083 68.7972L59.7723 68.9023L59.274 69.0337L58.4086 69.1914L56.9663 69.4017L55.9173 69.5068L54.6323 69.5857H52.7704L51.6952 69.5068L50.8823 69.4017L49.9906 69.2177L49.3088 69.0337L48.7581 68.8497L48.1025 68.6132L48.0501 68.5606L47.9452 67.9824L47.7091 67.1676L47.4993 66.5893L47.2633 66.0899L46.9749 65.5643L46.6339 65.0649L46.293 64.6443L46.0832 64.3815L45.821 64.0924L45.585 63.8032L45.349 63.5404L45.0605 63.1724L44.7458 62.7782L44.3787 62.2788L44.1426 61.9634L43.7231 61.3589L43.4608 60.9383L43.2248 60.5703L42.8052 59.8607L42.543 59.3876V59.2824L42.779 59.1247L43.1723 58.8356L43.5919 58.4939L43.8542 58.2574L44.064 58.0734L44.772 57.3637L44.9556 57.1535L45.2703 56.7855L45.5325 56.4438L45.8472 56.0233L46.1095 55.629L46.3455 55.2347L46.6864 54.6302L46.9224 54.1571ZM38.3734 29.1376L37.829 29.0858L37.3365 29.1635L36.7921 29.2931L36.4551 29.4226L36.0403 29.6298L35.6773 29.863L35.47 30.0184L35.1848 30.2516L34.77 30.6661L34.4849 31.0029L34.2256 31.3656L33.9405 31.8319L33.7071 32.2723L33.5257 32.7386L33.5516 32.7904L34.6663 33.1272L35.6255 33.3862L36.3254 33.5935L36.6106 33.723L36.8439 33.9044L37.1032 34.2411L37.2846 34.6815L37.3883 35.1997V35.4587L37.3624 35.6401L37.2587 36.0805L37.1032 36.4691L36.8958 36.8059L36.6625 37.0649L36.3773 37.2981L36.0144 37.4794L35.7292 37.5571H35.444L35.0033 37.4535L33.9664 37.1426L33.5516 37.039L33.4738 37.1167L33.2405 37.4535L32.9294 37.7644L32.6443 37.9975L32.5146 38.1271L32.5924 38.5157L32.7739 39.2669L32.9554 39.811L33.3183 40.5104L33.5516 40.8472L33.7849 41.1322L34.096 41.4172L34.3552 41.6244L34.6922 41.8317L35.0811 41.9871L35.7551 42.1425L36.3773 42.2462L37.9327 42.557L39.8251 42.9715H40.4473L40.9139 42.8679L41.3806 42.7125L41.6657 42.5829L42.1842 42.2721L42.6249 41.9353L43.0656 41.4949L43.2471 41.2876L43.4804 41.0286L43.7915 40.5882L44.0507 40.1737L44.31 39.6814L44.5433 39.1633L44.8284 38.3602L45.0099 37.6608L45.1655 36.8059L45.2432 36.0287V35.0183L45.1914 34.4225L45.0877 33.8526L44.9321 33.179L44.6988 32.5572L44.4396 32.0132L44.1803 31.5728L43.8693 31.1324L43.5322 30.7956L43.273 30.5625L42.9619 30.3293L42.6768 30.1739L42.1842 29.9925L41.5102 29.8371L40.3436 29.6298L39.6696 29.4744L38.9437 29.2672L38.3734 29.1376ZM60.3118 56.8572H60.3633L60.569 57.2914L60.7747 57.617L61.0833 57.9969L61.3147 58.214L61.6747 58.4582L62.009 58.5939L62.4718 58.7024L62.8576 58.7567H63.1147L63.5776 58.7024H63.7318L63.7576 58.7567L63.6804 59.5165L63.5518 60.222L63.2947 61.0361L63.089 61.4431L62.909 61.6873L62.7033 61.9044L62.369 62.1215L62.0861 62.23L61.9576 62.2572H61.5976L61.3661 62.2029L61.1347 62.0672L60.8776 61.823L60.6976 61.5788L60.5176 61.1175L60.4147 60.7647L60.3376 60.3577L60.2861 59.7336V58.431L60.3118 57.5627V56.8572ZM33.7973 33.3547L33.6719 33.3286L33.7973 33.6414L33.9478 34.1105L34.0482 34.7099V35.2832L33.9478 35.8827L33.8475 36.2215L33.697 36.5603L33.722 36.6906L34.1234 36.8209L34.7506 37.0294L35.3276 37.1858H35.5785L35.7541 37.1336L36.0802 36.9251L36.306 36.6906L36.5067 36.4039L36.6572 36.039L36.7576 35.622V35.179L36.7074 34.9184L36.582 34.5796L36.4315 34.345L36.1806 34.1105L35.9046 34.0062L34.4245 33.5632L33.7973 33.3547ZM59.9358 61.4857L60.0139 61.5127L60.2222 61.9443L60.4564 62.2949L60.6907 62.5646L60.977 62.7804L61.2634 62.8883L61.4456 62.9153H61.7319L62.1223 62.8613L62.4347 62.7534L62.8772 62.5107L63.1635 62.2679L63.3197 62.1331L63.3718 62.187L63.1896 62.6456L62.9553 63.185L62.6429 63.7245L62.4087 64.0482L62.1223 64.3988L61.836 64.6955L61.4456 64.9922L61.0551 65.208L60.7167 65.3159L60.5345 65.3429H60.0139L59.7276 65.235L59.4933 65.0731L59.2851 64.8573L59.1289 64.6146L59.1549 64.3718L59.3111 63.8324L59.5714 62.8613L59.8317 61.9173L59.9358 61.4857Z" fill="#363739"/>
</svg>
