<svg width="181" height="180" viewBox="0 0 181 180" fill="none" xmlns="http://www.w3.org/2000/svg">
<path d="M46.7434 76.5H132.397L136.205 76.5893L137.534 76.857L138.951 77.3926L140.191 78.1066L141.166 78.9099L141.963 79.7132L142.76 80.8736L143.469 82.3017L143.823 83.462L144 84.4438V130.5H37V85.2471L37.1772 83.6405L37.62 82.2124L38.3286 80.7843L39.1258 79.7132L40.3659 78.4636L41.6945 77.5711L43.2003 76.9463L44.2632 76.6785L44.8833 76.5893L46.7434 76.5Z" fill="#D7D7D7"/>
<path d="M31.8148 134.5H149.008L150.161 134.767L151.137 135.302L152.024 136.104L152.556 136.995L152.911 137.886L153 138.332V140.114L152.734 141.718L152.29 143.411L151.758 144.748L150.871 146.351L149.629 147.955L148.476 149.114L147.322 150.005L146.169 150.718L144.749 151.431L143.153 151.965L141.467 152.322L140.669 152.411L132.241 152.5H43.6139L40.2427 152.411L38.5571 152.144L37.1377 151.787L35.4521 151.074L34.0326 150.272L32.9681 149.47L31.9035 148.579L31.2825 147.866L30.3953 146.797L29.5969 145.46L28.7984 143.767L28.2661 141.985L28 140.47V138.153L28.3549 137.084L28.9759 136.104L29.6856 135.391L30.7502 134.767L31.8148 134.5Z" fill="#D7D7D7"/>
<path d="M89.8909 27.5H91.1091L92.3273 27.8571L93.9807 28.75L95.982 30L97.2873 30.9821L98.3315 31.7857L99.4627 32.7679L100.159 33.3929L101.551 34.7321L102.334 35.625L103.204 36.6071L103.901 37.5L105.119 39.1964L106.25 40.9821L107.468 43.2143L108.512 45.2679L110.34 49.0179L111.21 50.9821L111.819 52.8571L112.254 54.8214L112.428 56.6071V58.5714L112.167 60.625L111.558 62.7679L111.036 64.1071L110.166 65.8036L110.079 66.1607L121.043 71.7857L122 72.3214V72.4107L59.174 72.5L59 72.3214L71.0083 66.1607L70.8343 65.7143L69.9641 64.0179L69.268 62.1429L68.8329 60.2679L68.6588 58.9286V56.1607L68.9199 54.1964L69.355 52.4107L69.9641 50.7143L71.0083 48.4821L73.6188 43.125L74.837 40.9821L75.7072 39.5536L76.9254 37.8571L77.6215 36.9643L78.6657 35.7143L79.7099 34.5536L80.6671 33.5714L81.3633 32.9464L82.5815 31.875L83.9738 30.8036L85.8011 29.5536L87.1064 28.75L88.9337 27.7679L89.8909 27.5Z" fill="#D7D7D7"/>
<path d="M89.0297 45.5H91.9703L94.2871 45.8611L96.1584 46.4028L97.9406 47.125L99.3663 47.8472L100.436 48.5694L100.97 49.4722L103.109 53.8056L103.644 55.25L103.911 56.5139L104 57.7778L103.822 59.2222L103.465 60.3958L102.842 61.6597L102.129 62.5625L101.683 63.0139L100.792 63.8264L99.099 65.0903L97.2277 66.5347L95.5347 67.7986L93.6634 69.2431L92.6832 69.9653L91.2574 71.0486L90.7228 71.5H90.2772L88.6733 70.2361L86.9802 68.9722L85.8218 68.0694L83.3267 66.1736L81.6337 64.9097L80.1188 63.7361L78.9604 62.7431L78.0693 61.5694L77.4455 60.3056L77.0891 59.0417L77 58.5V56.9653L77.2673 55.4306L77.802 53.9861L79.0495 51.3681L80.0297 49.3819L80.4752 48.6597L81.2772 48.0278L83.3267 46.9444L85.2871 46.2222L87.1584 45.7708L89.0297 45.5Z" fill="#212121"/>
<path d="M101.599 90.5H102.693L103.366 90.8409L104.46 91.8636L116.327 103.881L116.832 104.648L117 105.244L116.916 106.097L116.411 106.949L103.45 120.074L102.777 120.415L102.525 120.5H101.683L101.01 120.244L100.505 119.818L100.084 119.136L100 118.795V117.943L100.252 117.261L101.01 116.409L111.698 105.585L111.53 105.244L100.589 94.1648L100.084 93.3977L100 93.0568V92.2045L100.252 91.5227L100.842 90.8409L101.599 90.5Z" fill="#212121"/>
<path d="M78.3069 90.5H79.401L80.2426 90.9261L80.7475 91.608L81 92.375L80.9158 93.2273L80.5792 93.9091L79.401 95.1875L69.8069 104.903L69.2178 105.415L69.7228 106.011L80.4109 116.835L80.8317 117.517L81 118.114L80.9158 118.966L80.5792 119.648L79.9059 120.244L79.2327 120.5H78.3911L77.5495 120.074L77.0446 119.648V119.477L76.7921 119.392L76.4554 119.051V118.881L76.1188 118.71L75.8663 118.455V118.284L75.6139 118.199V118.028L75.3614 117.943L74.7723 117.261L64.7574 107.119L64.2525 106.523L64 105.926V105.074L64.505 104.051L77.4653 90.9261L78.3069 90.5Z" fill="#212121"/>
<path d="M94.8212 90.5H96.1126L97.106 90.9261L97.702 91.5227L98 92.2898V92.9716L97.5033 94.4205L96.3113 97.4034L94.9205 101.068L92.5364 107.205L91.245 110.443L89.9536 113.852L88.5629 117.347L87.8675 119.136L87.2715 119.903L86.5762 120.33L85.9801 120.5H84.9868L84.1921 120.244L83.4967 119.733L83 118.881V117.943L83.596 116.239L92.3377 93.7386L93.1325 91.7784L93.7285 91.0114L94.5232 90.5852L94.8212 90.5Z" fill="#212121"/>
</svg>
