<svg width="90" height="90" viewBox="0 0 90 90" fill="none" xmlns="http://www.w3.org/2000/svg">
  <path fill-rule="evenodd" clip-rule="evenodd" d="M45 90C69.8528 90 90 69.8528 90 45C90 20.1472 69.8528 0 45 0C20.1472 0 0 20.1472 0 45C0 69.8528 20.1472 90 45 90ZM58.5903 73.3557C59.4908 72.4857 61.9367 70.4122 63.7702 69.4697C64.0377 69.3334 64.3454 69.1862 64.6747 69.0286C67.2355 67.8029 71.1038 65.9514 67.5993 63.764C67.4864 63.6913 67.3534 63.6181 67.2066 63.5373C66.182 62.9732 64.4878 62.0404 64.3177 58.3592C63.4856 59.1023 63.5792 63.0209 65.8954 63.8003C68.471 64.6739 70.0775 66.1275 65.2867 67.7805C62.1348 68.8825 61.5872 69.2087 59.0802 71.3076C56.537 73.4463 52.7404 72.6053 53.4176 68.1394C53.7706 65.7759 53.9651 63.8655 53.3851 61.8247C53.0934 60.8604 52.9673 59.5627 53.1618 58.6891C53.5148 56.9418 54.4478 56.4235 55.3807 58.0728C55.4743 58.2453 55.5578 58.4219 55.6407 58.5972C56.0718 59.5091 56.4869 60.3868 58.212 60.4689C60.3196 60.5521 61.3215 59.1772 62.0517 58.1753C62.4359 57.6479 62.7449 57.224 63.1002 57.1702C63.7738 57.0723 64.4834 55.1004 63.9683 51.9213C63.3883 48.5247 61.3963 43.1851 58.8532 40.4664C56.7315 38.2007 55.4095 36.2288 54.5738 33.4122C53.8642 31.0161 53.4788 28.7178 53.6085 26.4848C53.7994 23.6392 52.2252 19.659 49.7145 17.7813C48.1368 16.6177 45.6621 15.9652 43.4432 16.0014C42.186 16.0014 40.9973 16.1936 40.1004 16.6829C36.3685 18.7165 35.8534 21.6346 35.9183 24.9696C35.9795 28.0726 36.0768 31.6323 36.4334 34.9999C36.0119 36.5514 33.8254 39.4949 32.4314 41.311C30.9823 42.7439 30.0959 45.2286 29.2001 47.7393C28.9425 48.4614 28.6841 49.1856 28.4114 49.8876C28.1891 50.4608 27.9161 50.928 27.6503 51.383C27.1494 52.2403 26.6738 53.0543 26.6103 54.4515C26.5779 55.0677 26.6103 56.6228 27.1578 56.1697C29.3443 54.4877 32.0784 58.7579 36.2281 65.301C36.9989 66.5589 39.7978 71.8332 34.9097 72.5147C33.7802 72.6692 32.1806 72.1673 30.4646 71.6289C29.6851 71.3843 28.8816 71.1321 28.0872 70.9306C26.935 70.6508 25.7663 70.4217 24.7258 70.2178C23.7041 70.0175 22.806 69.8415 22.1688 69.6655C21.3656 69.4407 21.045 69.1507 20.9801 68.8245C20.8764 68.3586 21.1568 67.7907 21.4461 67.2048C21.6992 66.6921 21.9592 66.1655 21.9743 65.6816C22.0248 64.8772 21.7826 64.365 21.5063 63.7806C21.4277 63.6146 21.3464 63.4426 21.2683 63.2565C20.9117 62.4155 20.818 61.7667 21.1062 61.4114C21.3007 61.1178 21.751 61.0199 22.4894 61.0888C23.426 61.183 24.5499 60.9873 25.1622 60.5994C26.16 59.9832 26.6427 58.7217 26.1925 57.1738C26.1925 58.6927 25.6773 59.2473 24.4562 59.9578C23.9047 60.2638 23.2139 60.2994 22.5515 60.3335C21.825 60.3709 21.1327 60.4065 20.6956 60.7952C20.1124 61.3054 20.3626 62.3222 20.6307 63.4118C20.8064 64.1259 20.9898 64.8713 20.9513 65.5258C20.9155 65.9954 20.7056 66.4931 20.492 66.9994C20.1467 67.818 19.792 68.6591 20.148 69.4407C20.6045 70.4304 22.3748 70.7412 24.4794 71.1108C25.0652 71.2137 25.6769 71.3211 26.2933 71.449C28.3448 71.8725 29.9585 72.4629 31.2939 72.9515C32.5989 73.429 33.6381 73.8092 34.5603 73.8414C35.8074 73.886 36.5731 73.3386 37.4383 72.72C38.4724 71.9807 39.6488 71.1398 41.9591 71.0865C42.6791 71.0699 43.3873 71.0425 44.0904 71.0154C44.615 70.9952 45.1367 70.9751 45.6585 70.9596H45.6594C47.0423 70.9596 48.4253 70.9596 49.8406 70.9958C51.5321 71.05 51.8685 71.6035 52.2561 72.2414C52.5174 72.6712 52.8019 73.1394 53.54 73.5188C55.1178 74.3308 57.9131 74.0046 58.5903 73.3557ZM58.4144 47.6708C58.9057 49.9689 59.1618 51.1669 58.3669 53.8389L58.3884 53.8484C58.916 54.0822 60.1356 54.6226 60.1356 55.2019C58.8172 54.1361 54.8584 53.9367 54.7648 56.5286C54.0551 56.5286 53.5436 56.5902 53.1258 57.1086C52.0479 58.3898 52.355 60.5238 52.6272 62.4156C52.7617 63.3499 52.8876 64.2252 52.834 64.9095C52.7568 65.9882 52.5431 67.0554 52.3288 68.1255C52.1831 68.8535 52.037 69.5827 51.9335 70.318C50.9681 70.2817 51.0618 69.6039 51.3535 68.5997C51.3951 68.4738 51.4393 68.3438 51.4847 68.2104C51.7542 67.4184 52.0642 66.5073 52.092 65.62C52.128 64.6485 52.0271 64.0649 51.7714 63.938C51.5444 63.7785 51.1914 64.0685 50.6763 64.9095C49.5849 66.6894 47.2038 67.4651 44.9849 67.7261C42.7984 68.0161 40.738 67.7914 39.6465 66.5625C39.2935 66.1348 38.6487 66.6894 38.5839 66.7872C38.5348 66.8709 38.6342 66.9904 38.7913 67.1792C38.9339 67.3505 39.1239 67.5789 39.2935 67.8892C39.8122 68.7919 40.2913 70.2165 39.0702 70.8617C39.091 68.5028 38.5612 67.7455 37.865 66.7502C37.5973 66.3674 37.3049 65.9494 37.0097 65.3916C39.0702 65.1633 39.3583 62.9665 38.3605 62.0277C38.0437 61.697 37.1138 60.9483 36.0485 60.0906C34.5097 58.8517 32.6884 57.3854 32.0243 56.6228C31.8191 56.4041 31.587 56.2265 31.3617 56.0542C30.9859 55.7668 30.629 55.4937 30.4466 55.0677C29.7406 53.5162 29.2579 51.2833 30.126 49.6991C30.2881 49.4019 30.4142 49.536 30.2881 50.116C29.5785 53.5126 31.765 56.2966 32.2477 54.872C32.4492 54.3231 32.4333 53.5266 32.4165 52.6805C32.4035 52.0291 32.39 51.3484 32.4746 50.7286C32.7952 48.2709 35.0141 43.5077 36.0119 43.254C35.1083 41.5522 35.915 40.082 36.7044 38.6432C37.2368 37.6729 37.7612 36.717 37.7482 35.714C37.7332 34.8713 38.115 35.4342 38.6881 36.2792C39.2194 37.0626 39.9152 38.0885 40.6119 38.4617C41.6446 39.0034 42.7424 38.1853 44.0584 37.2046C44.7944 36.6562 45.5986 36.0569 46.4978 35.6161C46.5972 35.5656 46.7004 35.5146 46.8042 35.4632C47.4383 35.1494 48.0958 34.824 48.0431 34.5468C47.8953 33.7994 47.0359 34.2964 45.8691 34.9712C44.7611 35.612 43.3759 36.4131 42.06 36.4608C40.8388 36.4898 40.3886 36.1998 39.9059 35.7466C39.1141 34.9661 39.2612 34.9891 39.9173 35.0915C40.4312 35.1718 41.2576 35.3008 42.1896 35.1304C43.0224 34.988 43.3672 34.8428 44.1413 34.5168C44.2344 34.4775 44.3338 34.4357 44.441 34.3909C44.8399 34.2402 45.254 34.055 45.6773 33.8657C46.3433 33.5679 47.0318 33.26 47.7189 33.0605C48.5222 32.8648 48.4574 32.2485 48.1368 32.0891C47.9783 31.9912 47.7189 31.9912 47.4956 32.3464C47.0979 33.0476 45.4541 33.5014 44.5032 33.7639C44.3086 33.8176 44.1431 33.8634 44.0231 33.9015C43.0866 34.1915 42.0924 34.4525 40.7416 34.3873C39.4786 34.3428 39.1711 33.962 38.7822 33.4801C38.5366 33.1759 38.2585 32.8314 37.6869 32.5059C37.2691 32.2812 37.3952 31.6323 37.9427 31.0523C38.0536 30.9506 38.2205 30.8617 38.4087 30.7614C38.7709 30.5684 39.2119 30.3335 39.4844 29.8851C39.5493 29.7908 40.068 29.2362 40.4822 28.9462C40.6119 28.8483 40.6119 26.3253 39.3583 26.2927C38.2669 26.2601 37.9427 27.1011 37.9751 27.9457C38.04 28.7867 38.4902 29.5008 38.7784 29.5008C39.3583 29.4646 38.8108 30.1134 38.4902 30.2113C38.0075 30.3744 37.3627 28.33 37.46 27.3585C37.5248 26.3253 38.04 24.5129 39.3259 24.5455C40.4822 24.5781 41.3215 26.0353 41.2891 28.5583C41.2891 28.7436 41.6443 28.7303 42.0982 28.7135C42.6835 28.6917 43.433 28.6638 43.7962 29.0477C43.8985 29.1506 43.8745 28.9761 43.8285 28.6407C43.672 27.4997 43.26 24.4974 46.6923 24.2229C47.8486 24.4512 48.9761 24.8391 49.4264 27.5578C49.3728 27.643 49.3861 27.9053 49.4025 28.2265C49.4356 28.8765 49.481 29.7673 49.0085 29.9177C48.1368 30.2113 47.5929 29.8851 48.1044 29.0477C48.4286 28.2031 48.1044 26.0643 46.3357 26.1948C44.5346 26.2927 44.794 29.5008 45.2767 29.5624C45.4915 29.5915 45.8526 29.7807 46.2638 29.996C46.7764 30.2646 47.3669 30.5739 47.8486 30.6644C49.6549 31.02 49.4373 31.8195 49.1507 32.8728C48.9932 33.4516 48.8149 34.1071 48.9401 34.8078C49.1032 35.6594 49.4196 36.094 49.823 36.6482C50.4619 37.5257 51.3191 38.7031 52.1316 42.3115C52.1717 42.3672 52.2324 42.4221 52.3104 42.4927C52.7292 42.8717 53.6455 43.701 54.5414 47.5242C54.8958 49.0593 54.9254 50.4412 54.9491 51.5505C54.9879 53.362 55.0111 54.4466 56.4074 54.2847C56.9225 54.2521 57.6933 54.089 58.0139 52.929C58.8496 49.9493 57.5636 46.3605 56.2777 43.9282C55.5392 42.5072 54.8296 41.5683 54.4442 41.2457C55.9247 42.1157 57.823 44.9359 58.2733 47.0058C58.3219 47.2382 58.3691 47.4592 58.4144 47.6708ZM31.809 44.9206C31.9162 44.8034 32.041 44.6672 32.1216 44.5191C32.2414 44.3292 32.3002 44.118 32.349 43.9428C32.4175 43.6966 32.4662 43.5215 32.6367 43.5766C32.843 43.6555 32.7775 43.8618 32.6612 44.2276C32.6334 44.3154 32.6026 44.4124 32.5719 44.5191C32.3774 44.9649 31.9271 45.3601 31.765 45.3274C31.477 45.283 31.6143 45.1332 31.809 44.9206ZM39.3583 27.3947C39.1638 27.4563 39.099 26.8763 39.4844 26.9742C39.6789 27.0395 40.068 27.6195 39.9347 28.4351C39.9347 28.533 39.8734 28.533 39.841 28.533C39.5493 28.533 39.5168 28.2683 39.5817 27.8805C39.6501 27.5905 39.488 27.3947 39.3583 27.3947ZM41.127 29.3014C40.0968 29.2362 40.0355 29.9829 40.3561 29.9503C40.5081 29.9503 40.5526 29.8422 40.6054 29.7138C40.6753 29.5439 40.7598 29.3386 41.127 29.3014ZM43.9259 29.7582C44.2465 29.6277 43.9259 28.9824 42.9929 29.3993C43.3219 29.3062 43.4736 29.467 43.6036 29.6046C43.7013 29.7082 43.7867 29.7986 43.9259 29.7582ZM46.7896 27.0685C46.5951 27.0032 46.4654 26.8147 46.8832 26.7785C47.0453 26.7495 47.7189 27.1373 47.6901 27.9095C47.6901 28.0073 47.3695 28.1378 47.3695 28.0726C47.3047 27.5905 47.0453 27.141 46.7896 27.0685ZM47.9783 19.3002C48.2341 19.3002 48.4934 19.5285 48.7492 19.7895C48.8372 19.8574 48.9365 19.9222 49.0313 19.9842C49.2506 20.1276 49.4465 20.2556 49.4264 20.3695C49.3143 20.6208 48.9103 20.6454 48.6273 20.6626C48.5102 20.6697 48.4137 20.6756 48.3673 20.6958C48.0904 20.7974 47.8997 20.9717 47.7469 21.1113C47.5617 21.2805 47.4321 21.3989 47.2723 21.2758C47.0601 21.1055 47.1981 20.9193 47.3534 20.7099C47.4327 20.6028 47.5166 20.4897 47.5605 20.3695C47.5883 20.2726 47.5795 20.1447 47.5704 20.011C47.5488 19.6946 47.525 19.346 47.9783 19.3002ZM51.7138 33.4846C51.8482 33.6646 52.0293 33.9073 52.3189 34.09C52.5085 34.2101 52.6893 34.2556 52.8486 34.2956C53.1221 34.3643 53.332 34.417 53.414 34.8041C53.5112 35.2573 53.2194 35.7793 52.834 35.714C52.1928 35.5799 50.6799 34.0248 51.3571 33.2817C51.4742 33.1638 51.5656 33.2862 51.7138 33.4846Z" fill="#363739"/>
</svg>
