<svg width="90" height="90" viewBox="0 0 90 90" fill="none" xmlns="http://www.w3.org/2000/svg">
  <path fill-rule="evenodd" clip-rule="evenodd" d="M45 90C69.8528 90 90 69.8528 90 45C90 20.1472 69.8528 0 45 0C20.1472 0 0 20.1472 0 45C0 69.8528 20.1472 90 45 90ZM49.4479 25.2739V24.55C40.1034 24.55 48.5494 30.703 49.4479 25.2739ZM62.2068 22.5593C61.488 17.8541 55.0187 18.216 53.7608 22.0164C51.6043 29.4362 61.1286 31.6078 62.2068 25.6358H60.4098C59.5113 28.8933 55.3781 27.2646 55.3781 24.55C55.3781 19.6638 59.8707 19.8448 60.4098 22.5593H62.2068ZM29.3213 19.1209H27.5242V28.8933H29.3213V22.9213L29.6807 22.0164C30.5944 20.527 32.835 20.8655 33.2747 22.5593V28.8933H35.2514V22.9213C35.2514 20.0258 39.2049 20.0258 39.2049 22.7403V28.8933H41.1816V22.1974C41.1816 18.397 36.1499 18.216 34.892 20.9306C34.1732 18.397 30.2198 18.578 29.3213 20.7496V19.1209ZM18 50.4287C18 60.0202 23.2114 65.9922 31.6574 65.9922C40.2831 65.9922 45.4945 59.8392 45.4945 50.4287C45.4945 41.0183 40.1034 35.0463 31.6574 35.0463C23.2114 35.0463 18 40.8373 18 50.4287ZM46.9321 23.2832C41.541 23.4642 42.2598 30.1601 47.4712 28.8933C47.9258 28.7939 48.3538 28.597 48.7259 28.3159C49.098 28.0348 49.4056 27.6762 49.6276 27.2646V28.8933H51.4246V22.1974C51.4246 18.216 45.4945 18.216 44.0568 20.7496C43.8282 21.1326 43.7042 21.5696 43.6974 22.0164H45.4945C46.0336 20.0258 49.6276 20.2067 49.4479 22.3784V23.1022L46.9321 23.2832ZM48.3697 57.1246C48.7291 62.5537 53.2217 65.6302 59.691 65.9922C70.8325 66.3541 75.1454 54.0481 66.1602 49.8858C64.6827 49.2481 62.9848 48.8879 61.3146 48.5335C58.7189 47.9827 56.1901 47.4461 54.6593 45.9045C48.7291 39.7515 65.082 34.8653 66.34 43.7328H70.4731C69.7543 29.9791 43.338 33.9605 50.1667 47.3522C51.2449 49.3429 53.7608 50.9717 57.1751 51.6955C78.9191 56.2198 56.8157 70.1545 52.6826 57.1246H48.3697ZM22.3129 50.4287C22.3129 43.3709 25.9069 38.8466 31.6574 38.8466C37.5876 38.8466 41.1816 43.1899 41.1816 50.4287C41.1816 57.6675 37.4079 62.0108 31.6574 62.0108C25.9069 62.0108 22.3129 57.4866 22.3129 50.4287Z" fill="#363739"/>
</svg>
