<svg width="90" height="90" viewBox="0 0 90 90" fill="none" xmlns="http://www.w3.org/2000/svg">
  <path fill-rule="evenodd" clip-rule="evenodd" d="M45 90C69.8528 90 90 69.8528 90 45C90 20.1472 69.8528 0 45 0C20.1472 0 0 20.1472 0 45C0 69.8528 20.1472 90 45 90ZM42.523 60.4315C42.513 55.0827 42.5022 49.2604 42.4928 45.5201C46.7458 45.5201 50.997 45.6839 55.2476 45.8478C59.497 46.0115 63.7459 46.1753 67.9953 46.1753C68.0016 50.8587 67.9995 55.6866 67.9974 60.5725C67.9964 63.0373 67.9953 65.5168 67.9953 68C59.5164 66.7341 51.0235 65.5501 42.5305 64.4016C42.5281 63.1377 42.5256 61.8001 42.523 60.4315ZM21 61.4709V45.5224C24.3251 45.5114 27.6495 45.5342 30.974 45.557C34.0493 45.5781 37.1246 45.5992 40.2005 45.5935C40.2005 47.8668 40.2027 50.1402 40.205 52.4138C40.2088 56.3111 40.2127 60.2087 40.2052 64.1055C35.3603 63.3901 30.5087 62.7425 25.6554 62.0946C24.1037 61.8875 22.5519 61.6803 21 61.4709ZM21 43.5855V27.6817C27.3845 26.6999 33.7948 25.8526 40.2052 25.0517C40.2095 28.744 40.2111 32.4337 40.2128 36.1238C40.214 38.586 40.2151 41.0484 40.217 43.512C37.1527 43.5087 34.0883 43.5291 31.024 43.5495C27.6827 43.5718 24.3413 43.5941 21 43.5855ZM55.7167 43.351C59.8115 43.3126 63.9057 43.2743 68 43.2584C67.9976 39.546 67.9976 35.8354 67.9976 32.1247C67.9976 28.4171 67.9976 24.7095 67.9953 21C59.5023 22.1767 51.007 23.3938 42.5305 24.6879C42.5258 30.9402 42.5258 37.1897 42.5305 43.4466C46.9269 43.4333 51.3221 43.3921 55.7167 43.351Z" fill="#363739"/>
</svg>
