<svg width="90" height="90" viewBox="0 0 90 90" fill="none" xmlns="http://www.w3.org/2000/svg">
<path fill-rule="evenodd" clip-rule="evenodd" d="M45 90C69.8528 90 90 69.8528 90 45C90 20.1472 69.8528 0 45 0C20.1472 0 0 20.1472 0 45C0 69.8528 20.1472 90 45 90ZM69.9461 25.1342C70.005 25.351 70.0158 25.5781 69.9776 25.7996L63.0453 68.7081C62.9223 69.4617 62.2767 70 61.5081 70H27.538C27.1722 70.001 26.818 69.8716 26.5391 69.6348C26.2602 69.398 26.0748 69.0694 26.0163 68.7081L19.0224 25.7996C18.984 25.5768 18.9951 25.3484 19.0549 25.1305C19.1148 24.9126 19.2219 24.7105 19.3686 24.5387C19.5154 24.3669 19.6982 24.2296 19.904 24.1365C20.1099 24.0434 20.3337 23.9969 20.5595 24.0002H68.4559C68.6805 23.9991 68.9025 24.0474 69.1064 24.1414C69.3104 24.2355 69.4912 24.3731 69.6363 24.5447C69.7814 24.7162 69.8871 24.9174 69.9461 25.1342ZM39.1893 54.5283H49.8415L52.4238 39.4565H36.3149L39.1893 54.5283Z"/>
</svg>
