<svg width="90" height="90" viewBox="0 0 90 90" fill="none" xmlns="http://www.w3.org/2000/svg">
  <path fill-rule="evenodd" clip-rule="evenodd" d="M45 90C69.8528 90 90 69.8528 90 45C90 20.1472 69.8528 0 45 0C20.1472 0 0 20.1472 0 45C0 69.8528 20.1472 90 45 90ZM39.8655 25H63.9444V25.0017H63.946C65.0831 25.0183 66 25.9453 66 27.0873V27.0956V51.0078H65.9983C60.0165 50.9911 55.1701 46.138 55.1651 40.1512V35.8649H50.7304C44.7303 35.8649 39.8655 31.0001 39.8655 25ZM27.9519 36.9936H52.0308V36.9953C53.1828 36.9953 54.1164 37.9289 54.1164 39.0809V63.0081C48.118 63.0031 43.2565 58.1433 43.2515 52.1448V47.8569H38.8168C32.8167 47.8569 27.9536 42.9937 27.9519 36.9936ZM16 48.9855H40.1039C41.2609 48.9855 42.1979 49.9225 42.1979 51.0795V75C36.1994 74.9967 31.3379 70.1335 31.3379 64.1351V59.8505H26.9016H26.8716C20.8698 59.8505 16.0033 54.9873 16 48.9855Z"/>
</svg>
