<svg width="90" height="90" viewBox="0 0 90 90" fill="none" xmlns="http://www.w3.org/2000/svg">
  <path fill-rule="evenodd" clip-rule="evenodd" d="M45 90C69.8528 90 90 69.8528 90 45C90 20.1472 69.8528 0 45 0C20.1472 0 0 20.1472 0 45C0 69.8528 20.1472 90 45 90ZM51.4289 22.696H58.6435L72.3043 30.2882L58.6435 72.304H51.4256L57.8353 34.0512L44.2805 72.304H37.0593L43.469 37.1352L29.9209 72.304H22.6963L29 39.5036L22.6963 22.696H29.9209L43.4723 35.7174L37.0593 22.696H44.2839L57.8353 32.6335L51.4289 22.696Z"/>
</svg>
