<svg width="90" height="90" viewBox="0 0 90 90" fill="none" xmlns="http://www.w3.org/2000/svg">
  <path fill-rule="evenodd" clip-rule="evenodd" d="M45 90C69.8528 90 90 69.8528 90 45C90 20.1472 69.8528 0 45 0C20.1472 0 0 20.1472 0 45C0 69.8528 20.1472 90 45 90ZM26.1816 68.0442L20.0553 60.4121C18.5813 58.576 17.7812 56.3179 17.7812 53.9939V26.358C17.7812 22.8768 20.5664 19.9882 24.1594 19.7429L52.5728 17.8029C54.6371 17.662 56.6887 18.2107 58.3845 19.3571L68.3673 26.1067C70.1544 27.3148 71.2188 29.2899 71.2188 31.3976V62.817C71.2188 66.2238 68.4803 69.0444 64.9623 69.261L33.4266 71.2022C30.6193 71.375 27.9059 70.1922 26.1816 68.0442ZM24.4138 23.2245L52.8273 21.2846C54.0658 21.2 55.2968 21.5292 56.3143 22.2171L66.2971 28.9666C67.1183 29.5217 67.6072 30.4292 67.6072 31.3976V62.8169C67.6072 64.3821 66.3489 65.6782 64.7326 65.7777L33.1969 67.7189C31.5843 67.8182 30.0255 67.1386 29.035 65.9047L22.9086 58.2728C21.9259 57.0485 21.3926 55.5432 21.3926 53.9939V26.3579C21.3926 24.709 22.7119 23.3407 24.4138 23.2245ZM25.8228 26.789C25.4276 26.4964 25.6157 25.8869 26.1121 25.8513L53.0184 23.9214C53.8757 23.8599 54.7275 24.096 55.4208 24.5872L60.8194 28.412C61.0242 28.5572 60.9282 28.8706 60.6744 28.8844L32.1808 30.4341C31.3185 30.481 30.4673 30.2277 29.7817 29.7201L25.8228 26.789ZM30.8443 35.2922C30.8443 34.3665 31.5921 33.6019 32.5484 33.5498L62.6742 31.9091C63.6063 31.8584 64.3908 32.5751 64.3908 33.4773V60.6832C64.3908 61.6071 63.6457 62.3709 62.6913 62.4252L32.7561 64.1285C31.7189 64.1876 30.8443 63.3905 30.8443 62.3864V35.2922ZM36.0361 40.187V39.8253C36.0361 38.9081 36.7707 38.1475 37.7174 38.0843L44.6132 37.6238L54.1495 51.6668V39.3417L51.6949 39.0145V38.8427C51.6949 37.9147 52.4462 37.1491 53.4051 37.1L59.6795 36.7786V37.6815C59.6795 38.1053 59.3643 38.468 58.9323 38.541L57.4223 38.7964V58.7566L55.5274 59.4082C53.9443 59.9527 52.1819 59.3699 51.2756 58.0024L42.0176 44.0319V57.366L44.867 57.9112L44.8275 58.1755C44.703 59.0035 43.9882 59.6297 43.1235 59.6682L36.0361 59.9837C35.9424 59.0932 36.6097 58.2968 37.5302 58.2001L38.4625 58.1021V40.3233L36.0361 40.187Z"/>
</svg>
