<svg width="90" height="90" viewBox="0 0 90 90" fill="none" xmlns="http://www.w3.org/2000/svg">
  <path fill-rule="evenodd" clip-rule="evenodd" d="M45 90C69.8528 90 90 69.8528 90 45C90 20.1472 69.8528 0 45 0C20.1472 0 0 20.1472 0 45C0 69.8528 20.1472 90 45 90ZM70.625 38.5625C70.625 40.8883 69.6698 42.9912 68.1301 44.5C69.6698 46.0088 70.625 48.1117 70.625 50.4375C70.625 55.0284 66.9034 58.75 62.3125 58.75H57.9501C58.4631 59.8297 58.75 61.0376 58.75 62.3125C58.75 66.9034 55.0284 70.625 50.4375 70.625C48.1117 70.625 46.0088 69.6698 44.5 68.1301C42.9912 69.6698 40.8883 70.625 38.5625 70.625C33.9716 70.625 30.25 66.9034 30.25 62.3125V57.9501C29.1703 58.4631 27.9624 58.75 26.6875 58.75C22.0966 58.75 18.375 55.0284 18.375 50.4375C18.375 48.1117 19.3303 46.0088 20.87 44.5C19.3303 42.9912 18.375 40.8883 18.375 38.5625C18.375 33.9716 22.0966 30.25 26.6875 30.25H31.0499C30.537 29.1703 30.25 27.9624 30.25 26.6875C30.25 22.0966 33.9716 18.375 38.5625 18.375C40.8883 18.375 42.9912 19.3303 44.5 20.87C46.0088 19.3303 48.1117 18.375 50.4375 18.375C55.0284 18.375 58.75 22.0966 58.75 26.6875V31.0499C59.8297 30.537 61.0376 30.25 62.3125 30.25C66.9034 30.25 70.625 33.9716 70.625 38.5625ZM42.125 26.6875C42.125 24.72 40.5299 23.125 38.5625 23.125C36.595 23.125 35 24.72 35 26.6875C35 28.655 36.595 30.25 38.5625 30.25H42.125V26.6875ZM50.4375 23.125C48.4701 23.125 46.875 24.72 46.875 26.6875V42.125H54V26.6875C54 24.72 52.4049 23.125 50.4375 23.125ZM42.125 35V42.125H26.6875C24.72 42.125 23.125 40.5299 23.125 38.5625C23.125 36.595 24.72 35 26.6875 35H42.125ZM62.3125 42.125H58.75V38.5625C58.75 36.595 60.3451 35 62.3125 35C64.28 35 65.875 36.595 65.875 38.5625C65.875 40.5299 64.28 42.125 62.3125 42.125ZM46.875 46.875H62.3125C64.28 46.875 65.875 48.4701 65.875 50.4375C65.875 52.4049 64.28 54 62.3125 54H46.875V46.875ZM46.875 58.75H50.4375C52.4049 58.75 54 60.3451 54 62.3125C54 64.28 52.4049 65.875 50.4375 65.875C48.4701 65.875 46.875 64.28 46.875 62.3125V58.75ZM35 62.3125V46.875H42.125V62.3125C42.125 64.28 40.5299 65.875 38.5625 65.875C36.595 65.875 35 64.28 35 62.3125ZM30.25 46.875H26.6875C24.72 46.875 23.125 48.4701 23.125 50.4375C23.125 52.4049 24.72 54 26.6875 54C28.655 54 30.25 52.4049 30.25 50.4375V46.875Z"/>
</svg>
