<svg width="90" height="90" viewBox="0 0 90 90" fill="none" xmlns="http://www.w3.org/2000/svg">
<path fill-rule="evenodd" clip-rule="evenodd" d="M45 90C69.8528 90 90 69.8528 90 45C90 20.1472 69.8528 0 45 0C20.1472 0 0 20.1472 0 45C0 69.8528 20.1472 90 45 90ZM72 36.2925L67.6823 25.5938L64.98 19.125L52.425 18L50.4675 19.89L47.97 18.945L40.05 23.175L31.5 18.1012L18 23.6362L25.2563 66.771L55.125 72L57.015 62.415L57.3525 62.2103H27.7875V27.7875H62.2125V59.3438L72 53.55L66.0938 42.48L72 36.2925ZM53.7754 46.7527L53.7637 46.7523L53.7506 46.7505L53.7754 46.7527ZM28.4629 61.5397H61.5379V28.4625H28.4629V61.5397ZM43.9879 57.6562H31.3339V55.53H43.9901L43.9879 57.6562ZM53.2691 32.2312C55.2131 32.2515 56.9974 32.9265 58.4149 34.0447L58.3969 34.0312L56.8219 36.3937C55.8544 35.6175 54.6326 35.1202 53.2961 35.0437H53.2804C52.1554 35.0437 51.4804 35.55 51.4804 36.3262C51.4804 37.2262 52.0901 37.575 54.4481 38.1488C57.2179 38.925 58.8379 39.9487 58.8379 42.3675C58.8221 44.8177 56.8354 46.7955 54.3829 46.7955C54.1736 46.7955 53.9665 46.7804 53.7637 46.7523C51.507 46.6688 49.4594 45.8302 47.8534 44.4802L47.8691 44.4915L49.6219 42.2955C50.7176 43.2967 52.1689 43.929 53.7641 43.983H53.7754C55.0241 43.983 55.8004 43.4767 55.8004 42.633C55.8004 41.8545 55.2896 41.4517 53.0329 40.833C50.2294 40.0905 48.4429 39.312 48.4429 36.558V36.459C48.5014 34.101 50.4251 32.2132 52.7899 32.2132C52.9517 32.2132 53.1115 32.2215 53.2691 32.2401V32.2312ZM33.8629 32.5013L35.9869 40.6012L38.3494 32.5013H40.7254L43.0901 40.6012L45.1804 32.5013H48.4901L44.4401 46.5075H41.7941L39.5441 38.4075L37.2491 46.5075H34.6504L30.5891 32.5125L33.8629 32.5013Z" fill="#363739"/>
</svg>
