<svg width="90" height="90" viewBox="0 0 90 90" fill="none" xmlns="http://www.w3.org/2000/svg">
<path fill-rule="evenodd" clip-rule="evenodd" d="M45 90C69.8528 90 90 69.8528 90 45C90 20.1472 69.8528 0 45 0C20.1472 0 0 20.1472 0 45C0 69.8528 20.1472 90 45 90ZM45.4727 41.3633C45.4727 36.168 41.7812 33.0234 35.5605 33.0234H24.4863V59H30.2969V49.7031H35.5605C41.7812 49.7031 45.4727 46.627 45.4727 41.3633ZM39.5254 41.5C39.5254 43.8242 37.8848 45.0547 34.877 45.0547H30.2969V37.9453H34.877C37.8848 37.9453 39.5254 39.1074 39.5254 41.5ZM67.6648 53.668H54.95V33.0234H49.0711V59H67.6648V53.668Z" fill="#363739"/>
</svg>
