<svg width="90" height="90" viewBox="0 0 90 90" fill="none" xmlns="http://www.w3.org/2000/svg">
  <path fill-rule="evenodd" clip-rule="evenodd" d="M45 90C69.8528 90 90 69.8528 90 45C90 20.1472 69.8528 0 45 0C20.1472 0 0 20.1472 0 45C0 69.8528 20.1472 90 45 90ZM44.0449 53.668H43.0879C42.4043 53.668 41.9258 53.1895 41.9258 52.5059V46.9004H37.5508C40.4219 46.0117 43.0195 43.7559 43.0195 40.2695C43.0195 35.7578 39.4648 33.0234 33.5176 33.0234H21.4863V59H27.3652V49.4297H36.0469V54.1465C36.0469 57.291 37.8926 59 41.0371 59H44.0449V53.668ZM27.3652 37.8086H32.6289C35.6367 37.8086 37.1406 38.9707 37.1406 41.3633C37.1406 43.8242 35.6367 44.918 32.6289 44.918H27.3652V37.8086ZM46.6863 48.541C46.6863 55.1035 51.0613 59.3418 58.3074 59.3418C65.5535 59.3418 69.9285 55.1035 69.9285 48.541V33.0234H64.0496V48.3359C64.0496 52.0273 61.9988 54.1465 58.3074 54.1465C54.616 54.1465 52.5652 52.0273 52.5652 48.3359V33.0234H46.6863V48.541Z" fill="#363739"/>
</svg>
