<svg width="90" height="90" viewBox="0 0 90 90" fill="none" xmlns="http://www.w3.org/2000/svg">
  <path fill-rule="evenodd" clip-rule="evenodd" d="M45 90C69.8528 90 90 69.8528 90 45C90 20.1472 69.8528 0 45 0C20.1472 0 0 20.1472 0 45C0 69.8528 20.1472 90 45 90ZM21.1445 48.541C21.1445 55.1035 25.5195 59.3418 32.7656 59.3418C40.0117 59.3418 44.3867 55.1035 44.3867 48.541V33.0234H38.5078V48.3359C38.5078 52.0273 36.457 54.1465 32.7656 54.1465C29.0742 54.1465 27.0234 52.0273 27.0234 48.3359V33.0234H21.1445V48.541ZM64.8016 53.873L66.6473 59H72.9363L62.8191 33.0234H55.573L45.4559 59H51.6082L53.4539 53.873H64.8016ZM59.1277 38.1504L62.9559 48.8145H55.2996L59.1277 38.1504Z" fill="#363739"/>
</svg>
