<svg width="90" height="90" viewBox="0 0 90 90" fill="none" xmlns="http://www.w3.org/2000/svg">
  <path fill-rule="evenodd" clip-rule="evenodd" d="M45 90C69.8528 90 90 69.8528 90 45C90 20.1472 69.8528 0 45 0C20.1472 0 0 20.1472 0 45C0 69.8528 20.1472 90 45 90ZM74 25.6105L44.5 15L15 25.6105L19.4717 65.0211L44.5 79L69.5283 65.0211L74 25.6105ZM26.0458 63.8421L44.5 22.0737L62.8541 63.8421H56.013L52.3088 54.4779H36.6244L32.9202 63.8421H26.0458ZM39.1273 48.6842H49.9061L44.5 35.6484L39.1273 48.6842Z" fill="#363739"/>
</svg>
