<svg width="90" height="90" viewBox="0 0 90 90" fill="none" xmlns="http://www.w3.org/2000/svg">
<path fill-rule="evenodd" clip-rule="evenodd" d="M45 90C69.8528 90 90 69.8528 90 45C90 20.1472 69.8528 0 45 0C20.1472 0 0 20.1472 0 45C0 69.8528 20.1472 90 45 90ZM66.064 31.4663L65.5109 32.2986L65.1126 32.9843C64.6146 33.9218 64.2427 34.9204 64.0064 35.9543C63.4422 38.4329 63.7851 40.7613 64.9946 42.7523C63.9842 43.3389 62.5461 43.6176 61.6021 43.7423L61.0526 43.8009L60.7134 43.8266H21.8464L21.5957 43.8449C21.1464 43.9186 20.7386 44.15 20.4463 44.4972C20.154 44.8443 19.9966 45.2842 20.0026 45.7369C19.9558 49.2679 20.5312 52.7798 21.7026 56.1135C23.0412 59.7619 25.0325 62.4495 27.6248 64.0958C30.527 65.9438 35.247 66.9998 40.594 66.9998C43.0094 67.0072 45.421 66.7798 47.7958 66.3215C51.1114 65.6861 54.2915 64.4853 57.1954 62.7722C59.6177 61.3116 61.7848 59.4689 63.6118 57.3162C66.6909 53.6936 68.5236 49.6566 69.888 46.0742H70.4338L71.0902 46.0559C74.0734 45.8872 75.9541 44.5929 77.0235 43.4966C77.7873 42.7381 78.3783 41.8253 78.7566 40.8199L79 40.0866L78.2957 39.5146L78.0449 39.3496L77.6577 39.1406C76.9055 38.7629 75.5816 38.3083 73.6125 38.3083C72.7828 38.3083 71.9531 38.3816 71.1307 38.5283C70.6624 35.1696 68.4904 33.1456 67.4579 32.3536L67.0302 32.0493L66.064 31.4663ZM30.8035 36.9003L30.656 36.8746L25.4492 36.8709L25.3054 36.8929C25.2369 36.9179 25.1752 36.9584 25.1253 37.0113C25.0754 37.0641 25.0385 37.1278 25.0177 37.1973L24.9919 37.3439V42.1729L25.0177 42.3196C25.0459 42.4119 25.1029 42.493 25.1805 42.551C25.258 42.609 25.3521 42.641 25.4492 42.6423H30.656L30.7998 42.6203C30.8679 42.5957 30.9293 42.5557 30.9792 42.5035C31.0291 42.4514 31.0662 42.3884 31.0875 42.3196L31.1096 42.1693V37.3476L31.0875 37.2009C31.0665 37.1325 31.03 37.0698 30.9808 37.0176C30.9316 36.9655 30.8709 36.9253 30.8035 36.9003ZM37.9795 36.9003L37.8357 36.8746L32.6252 36.8709L32.4814 36.8966C32.3888 36.9306 32.309 36.9921 32.2529 37.0728C32.1968 37.1535 32.1671 37.2495 32.1679 37.3476V42.1766L32.1937 42.3196C32.2224 42.4116 32.2795 42.4924 32.357 42.5503C32.4344 42.6082 32.5283 42.6404 32.6252 42.6423H37.832L37.9758 42.6203C38.0439 42.5957 38.1053 42.5557 38.1552 42.5035C38.2051 42.4514 38.2422 42.3884 38.2635 42.3196L38.2893 42.1693V37.3476L38.2672 37.2009C38.2458 37.1321 38.2088 37.0692 38.1589 37.017C38.109 36.9648 38.0476 36.9249 37.9795 36.9003ZM45.2662 36.9003L45.1223 36.8746L39.9118 36.8709L39.768 36.8929C39.6995 36.9179 39.6379 36.9584 39.5879 37.0113C39.538 37.0641 39.5012 37.1278 39.4804 37.1973L39.4582 37.3439V42.1729L39.4804 42.3196C39.5085 42.4119 39.5655 42.493 39.6431 42.551C39.7206 42.609 39.8148 42.641 39.9118 42.6423H45.1187L45.2625 42.6203C45.3305 42.5957 45.3919 42.5557 45.4418 42.5035C45.4917 42.4514 45.5288 42.3884 45.5501 42.3196L45.5759 42.1693V37.3476L45.5501 37.2009C45.5292 37.1325 45.4927 37.0698 45.4434 37.0176C45.3942 36.9655 45.3335 36.9253 45.2662 36.9003ZM52.4643 36.9003L52.3205 36.8746L52.3242 36.8709H47.1173L46.9698 36.8929C46.9013 36.9179 46.8397 36.9584 46.7898 37.0113C46.7398 37.0641 46.703 37.1278 46.6822 37.1973L46.6601 37.3439V42.1729L46.6822 42.3196C46.7103 42.4119 46.7673 42.493 46.8449 42.551C46.9225 42.609 47.0166 42.641 47.1136 42.6423H52.3168L52.4643 42.6203C52.5569 42.5863 52.6366 42.5248 52.6927 42.444C52.7488 42.3633 52.7785 42.2674 52.7777 42.1693V37.3476L52.7519 37.2009C52.7306 37.1321 52.6936 37.0692 52.6436 37.017C52.5937 36.9648 52.5323 36.9249 52.4643 36.9003ZM59.7288 36.9003L59.585 36.8746L59.5813 36.8709H54.3781L54.2306 36.8929C54.1622 36.9179 54.1005 36.9584 54.0506 37.0113C54.0006 37.0641 53.9638 37.1278 53.943 37.1973L53.9209 37.3439V42.1729L53.943 42.3196C53.9712 42.4119 54.0282 42.493 54.1057 42.551C54.1833 42.609 54.2774 42.641 54.3744 42.6423H59.5813L59.7251 42.6203C59.8177 42.5863 59.8974 42.5248 59.9535 42.444C60.0096 42.3633 60.0393 42.2674 60.0385 42.1693V37.3476L60.0164 37.2009C59.9951 37.1321 59.958 37.0692 59.9081 37.017C59.8582 36.9648 59.7968 36.9249 59.7288 36.9003ZM37.9758 29.963L37.8283 29.9373H32.6252L32.4814 29.963C32.3894 29.9967 32.31 30.0577 32.254 30.1377C32.1979 30.2177 32.1679 30.3128 32.1679 30.4103V35.232L32.1937 35.3786C32.2211 35.472 32.2777 35.5544 32.3552 35.6137C32.4328 35.673 32.5273 35.7063 32.6252 35.7086H37.8283L37.9721 35.683C38.0647 35.649 38.1445 35.5875 38.2006 35.5067C38.2567 35.426 38.2864 35.3301 38.2856 35.232V30.4103L38.2598 30.26C38.2384 30.1922 38.2016 30.1302 38.1524 30.0787C38.1032 30.0273 38.0428 29.9877 37.9758 29.963ZM45.2625 29.963L45.115 29.9373H39.9118L39.768 29.963C39.6999 29.9876 39.6385 30.0275 39.5886 30.0797C39.5387 30.1319 39.5017 30.1948 39.4804 30.2636L39.4582 30.4103V35.232L39.4804 35.3786C39.5077 35.472 39.5643 35.5544 39.6419 35.6137C39.7194 35.673 39.814 35.7063 39.9118 35.7086H45.115L45.2588 35.683C45.3513 35.649 45.4311 35.5875 45.4872 35.5067C45.5433 35.426 45.573 35.3301 45.5722 35.232V30.4103L45.5464 30.26C45.525 30.1922 45.4883 30.1302 45.4391 30.0787C45.3898 30.0273 45.3294 29.9877 45.2625 29.963ZM52.7482 30.26C52.6855 30.073 52.5159 29.9373 52.3168 29.9373H47.1173L46.9698 29.963C46.9018 29.9876 46.8404 30.0275 46.7905 30.0797C46.7405 30.1319 46.7035 30.1948 46.6822 30.2636L46.6601 30.4103V35.232L46.6822 35.3786C46.7095 35.472 46.7661 35.5544 46.8437 35.6137C46.9212 35.673 47.0158 35.7063 47.1136 35.7086H52.3131L52.4606 35.683C52.5532 35.649 52.6329 35.5875 52.689 35.5067C52.7451 35.426 52.7748 35.3301 52.774 35.232V30.4103L52.7482 30.26ZM52.7482 23.3227C52.6855 23.1357 52.5159 23 52.3168 23H47.1136L46.9698 23.022C46.9018 23.0466 46.8404 23.0865 46.7905 23.1387C46.7405 23.1909 46.7035 23.2539 46.6822 23.3227L46.6601 23.4693V28.2983L46.6822 28.445C46.7103 28.5373 46.7673 28.6184 46.8449 28.6764C46.9225 28.7344 47.0166 28.7663 47.1136 28.7676H52.3131L52.4606 28.7456C52.5532 28.7117 52.6329 28.6501 52.689 28.5694C52.7451 28.4887 52.7748 28.3928 52.774 28.2946V23.4693L52.7482 23.3227Z" fill="#363739"/>
</svg>
