<svg width="90" height="90" viewBox="0 0 90 90" fill="none" xmlns="http://www.w3.org/2000/svg">
  <path fill-rule="evenodd" clip-rule="evenodd" d="M45 90C69.8528 90 90 69.8528 90 45C90 20.1472 69.8528 0 45 0C20.1472 0 0 20.1472 0 45C0 69.8528 20.1472 90 45 90ZM53.455 22.1819L68.7021 37.1578V37.1904C69.7474 38.2128 70.5768 39.4279 71.1427 40.7659C71.7087 42.104 72 43.5387 72 44.9876C72 46.4365 71.7087 47.8712 71.1427 49.2093C70.5768 50.5473 69.7474 51.7624 68.7021 52.7848L53.4219 67.7607C52.3809 68.7874 51.1438 69.6021 49.7815 70.158C48.4192 70.7139 46.9586 71 45.4834 71C44.0083 71 42.5476 70.7139 41.1853 70.158C39.823 69.6021 38.5859 68.7874 37.545 67.7607L22.2979 52.7523C21.2526 51.7299 20.4232 50.5148 19.8573 49.1767C19.2913 47.8386 19 46.404 19 44.955C19 43.5061 19.2913 42.0714 19.8573 40.7334C20.4232 39.3953 21.2526 38.1802 22.2979 37.1578L35.2579 24.5585L41.5556 30.7442C41.4013 31.1289 41.3117 31.5358 41.2905 31.9488C41.3193 32.6692 41.5394 33.3697 41.929 33.9808C42.3185 34.5919 42.864 35.0923 43.5112 35.4323V53.5987C42.8447 53.9496 42.2868 54.4704 41.896 55.1063C41.5052 55.7422 41.296 56.4698 41.2905 57.2125C41.2905 58.335 41.7445 59.4115 42.5525 60.2052C43.3606 60.9989 44.4566 61.4448 45.5994 61.4448C46.7422 61.4448 47.8382 60.9989 48.6463 60.2052C49.4544 59.4115 49.9084 58.335 49.9084 57.2125C49.9048 56.428 49.6758 55.6605 49.2477 54.9981C48.8197 54.3358 48.21 53.8056 47.4888 53.4685V36.4416L54.9466 43.7667C54.7922 44.1515 54.7026 44.5583 54.6814 44.9713C54.6814 45.8084 54.9341 46.6267 55.4076 47.3227C55.8811 48.0187 56.554 48.5611 57.3414 48.8815C58.1288 49.2018 58.9951 49.2856 59.831 49.1223C60.6669 48.959 61.4346 48.5559 62.0373 47.964C62.6399 47.3721 63.0503 46.618 63.2165 45.797C63.3828 44.976 63.2975 44.125 62.9713 43.3517C62.6452 42.5783 62.0929 41.9173 61.3843 41.4523C60.6757 40.9872 59.8426 40.739 58.9904 40.739C58.5699 40.7599 58.1557 40.8478 57.764 40.9995L49.6432 33.1859C49.7978 32.79 49.8873 32.3724 49.9084 31.9488V31.7535C49.9206 31.0952 49.77 30.4439 49.4696 29.8554C49.1692 29.2669 48.7279 28.7588 48.1836 28.3746C47.6393 27.9904 47.0082 27.7417 46.3445 27.6497C45.6808 27.5578 45.0043 27.6254 44.373 27.8467L38.1416 21.7261C40.2827 19.8924 43.0499 18.9206 45.8893 19.0051C48.7287 19.0896 51.4309 20.2242 53.455 22.1819Z" fill="#363739"/>
</svg>
