<svg width="90" height="90" viewBox="0 0 90 90" fill="none" xmlns="http://www.w3.org/2000/svg">
  <path fill-rule="evenodd" clip-rule="evenodd" d="M45 90C69.8528 90 90 69.8528 90 45C90 20.1472 69.8528 0 45 0C20.1472 0 0 20.1472 0 45C0 69.8528 20.1472 90 45 90ZM61.65 20H27.35C23.2907 20 20 23.2907 20 27.35V61.65C20 65.7093 23.2907 69 27.35 69H61.65C65.7093 69 69 65.7093 69 61.65V27.35C69 23.2907 65.7093 20 61.65 20ZM41.79 62.3C41.11 62.3 40.31 62.21 39.39 62.03C38.49 61.85 37.72 61.48 37.08 60.92L38.43 57.83C38.77 58.23 39.16 58.54 39.6 58.76C40.06 58.98 40.63 59.09 41.31 59.09C41.91 59.09 42.4 58.99 42.78 58.79C43.18 58.57 43.47 58.17 43.65 57.59C43.85 57.01 43.95 56.17 43.95 55.07V39.95H47.28V55.91C47.28 57.51 47.03 58.78 46.53 59.72C46.03 60.64 45.36 61.3 44.52 61.7C43.7 62.1 42.79 62.3 41.79 62.3ZM56.133 62.3C55.293 62.3 54.463 62.2 53.643 62C52.823 61.78 52.093 61.52 51.453 61.22C50.813 60.9 50.333 60.58 50.013 60.26L51.603 57.41C51.823 57.59 52.163 57.83 52.623 58.13C53.103 58.41 53.653 58.66 54.273 58.88C54.893 59.1 55.513 59.21 56.133 59.21C57.153 59.21 58.003 58.97 58.683 58.49C59.383 58.01 59.733 57.31 59.733 56.39C59.733 55.63 59.533 55 59.133 54.5C58.733 54 58.203 53.56 57.543 53.18C56.903 52.8 56.203 52.44 55.443 52.1C54.703 51.74 53.993 51.34 53.313 50.9C52.533 50.38 51.8531 49.69 51.273 48.83C50.693 47.97 50.403 46.86 50.403 45.5C50.403 44.16 50.703 43.06 51.303 42.2C51.923 41.34 52.733 40.7 53.733 40.28C54.753 39.84 55.863 39.62 57.063 39.62C58.023 39.62 58.843 39.72 59.523 39.92C60.203 40.12 60.773 40.36 61.233 40.64C61.693 40.92 62.053 41.17 62.313 41.39L60.723 44.12C60.383 43.76 59.873 43.43 59.193 43.13C58.513 42.81 57.753 42.65 56.913 42.65C55.933 42.65 55.153 42.88 54.573 43.34C53.993 43.78 53.703 44.44 53.703 45.32C53.703 46.1 53.963 46.77 54.483 47.33C55.003 47.87 55.663 48.37 56.463 48.83C57.283 49.27 58.123 49.72 58.983 50.18C59.843 50.64 60.603 51.18 61.263 51.8C61.803 52.28 62.263 52.88 62.643 53.6C63.023 54.32 63.213 55.13 63.213 56.03C63.213 57.39 62.893 58.54 62.253 59.48C61.633 60.42 60.793 61.13 59.733 61.61C58.673 62.07 57.473 62.3 56.133 62.3Z" fill="#363739"/>
</svg>
