<svg width="90" height="90" viewBox="0 0 90 90" fill="none" xmlns="http://www.w3.org/2000/svg">
  <path fill-rule="evenodd" clip-rule="evenodd" d="M45 90C69.8528 90 90 69.8528 90 45C90 20.1472 69.8528 0 45 0C20.1472 0 0 20.1472 0 45C0 69.8528 20.1472 90 45 90ZM57.0645 31.6473C57.0645 31.2707 57.3799 31 57.7243 31C57.834 31 57.9424 31.028 58.0499 31.0883L60.9075 32.719C61.2431 32.9127 61.4516 33.2648 61.4516 33.6479V46.6057V50.3674V54.1291C61.4516 54.5143 61.2411 54.8727 60.8989 55.0664L54.3312 58.8239C54.1601 58.9228 53.9672 58.971 53.7742 58.971C53.5812 58.971 53.3883 58.9228 53.2172 58.8239L46.6494 55.0664C46.3073 54.8727 46.0968 54.5164 46.0968 54.1291V46.6057C46.0968 46.2205 46.3073 45.8621 46.6494 45.6685L53.2172 41.911C53.3883 41.812 53.5812 41.7639 53.7742 41.7639C53.9672 41.7639 54.1601 41.812 54.3312 41.911L57.0645 43.4745V31.6473ZM35.6689 41.911C35.841 41.8131 36.0333 41.7639 36.2258 41.7639C36.4183 41.7639 36.6106 41.8131 36.7828 41.911L43.3506 45.6685C43.6927 45.8621 43.9032 46.2184 43.9032 46.6057V54.1291C43.9032 54.5143 43.6927 54.8727 43.3506 55.0664L36.7828 58.8239C36.4384 59.0197 36.0132 59.0197 35.6689 58.8239L29.1011 55.0664C28.7589 54.8727 28.5484 54.5164 28.5484 54.1291V46.6057C28.5484 46.2205 28.7589 45.8621 29.1011 45.6685L35.6689 41.911ZM70.7656 41.911C70.9367 41.812 71.1295 41.7639 71.3226 41.7639C71.5156 41.7639 71.7062 41.812 71.8795 41.911L78.4473 45.6685C78.7895 45.8621 79 46.2184 79 46.6057V48.6064C79 48.9894 78.7915 49.3437 78.4559 49.5352C78.4559 49.5352 75.9562 50.9573 75.127 51.435C74.9208 51.5555 74.6129 51.5001 74.6129 51.1408V48.4509L71.3226 46.5721L68.0323 48.4509V52.3134L74.8186 56.2348C75.1454 56.422 75.1432 56.8841 74.8186 57.067L71.6867 58.8533C71.3402 59.0513 70.9107 59.0493 70.5686 58.8449L64.1978 55.0664C63.8556 54.8727 63.6452 54.5164 63.6452 54.1291V46.6057C63.6452 46.2205 63.8556 45.8621 64.1978 45.6685L70.7656 41.911ZM18.1205 41.9152C18.2916 41.8162 18.4844 41.7681 18.6774 41.7681C18.8705 41.7681 19.0633 41.8162 19.2344 41.9152L25.8022 45.6685C26.1444 45.8643 26.3548 46.2226 26.3548 46.6099V56.2138C26.3548 56.6829 25.8375 56.9759 25.4252 56.7392L22.5118 55.0748C22.1762 54.8811 21.9677 54.529 21.9677 54.1459V48.4593L18.6774 46.5763L15.3871 48.4593V54.1459C15.3871 54.529 15.1786 54.8811 14.843 55.0748L11.9297 56.7392C11.5173 56.9737 11 56.6829 11 56.2138V46.6099C11 46.2226 11.2105 45.8643 11.5527 45.6685L18.1205 41.9152ZM57.0645 48.4551L53.7742 46.5721L50.4839 48.4551V52.2798L53.7742 54.1627L57.0645 52.2798V50.3674V48.4551ZM69.4418 49.2999L71.3226 48.2239L73.2034 49.2999V51.4476L71.3226 52.5194L69.4418 51.4476V49.2999Z" fill="#363739"/>
</svg>
