<svg width="90" height="90" viewBox="0 0 90 90" fill="none" xmlns="http://www.w3.org/2000/svg">
  <path fill-rule="evenodd" clip-rule="evenodd" d="M90 45C90 69.8528 69.8528 90 45 90C20.1472 90 0 69.8528 0 45C0 20.1472 20.1472 0 45 0C69.8528 0 90 20.1472 90 45ZM67.8461 25H22.1744C20.9892 25 20.0195 25.9697 20.0195 27.1549V53.1188H70.001V27.1549C70.001 25.9697 69.0313 25 67.8461 25ZM34.6205 27.7222H35.9955C36.4894 27.7222 36.8934 28.1262 36.8934 28.62C36.8934 29.1139 36.4894 29.5179 35.9955 29.5179H34.6205C34.1266 29.5179 33.7226 29.1139 33.7226 28.62C33.7226 28.1262 34.1266 27.7222 34.6205 27.7222ZM39.8115 34.4464C40.3054 34.4464 40.7094 34.8505 40.7094 35.3443C40.7094 35.8382 40.3054 36.2422 39.8115 36.2422H31.6844C31.1906 36.2422 30.7865 35.8382 30.7865 35.3443C30.7865 34.8505 31.1906 34.4464 31.6844 34.4464H39.8115ZM35.7479 39.2286C35.7479 39.7224 35.3439 40.1264 34.85 40.1264H31.6843C31.1905 40.1264 30.7864 39.7224 30.7864 39.2286C30.7864 38.7347 31.1905 38.3307 31.6843 38.3307H34.85C35.3439 38.3307 35.7479 38.7347 35.7479 39.2286ZM29.2332 27.7222H30.6082C31.1021 27.7222 31.5061 28.1262 31.5061 28.62C31.5061 29.1139 31.1021 29.5179 30.6082 29.5179H29.2332C28.7393 29.5179 28.3353 29.1139 28.3353 28.62C28.3353 28.1262 28.7393 27.7222 29.2332 27.7222ZM28.4161 35.3443C28.4161 35.8382 28.0121 36.2422 27.5182 36.2422H23.9267C23.4328 36.2422 23.0288 35.8382 23.0288 35.3443C23.0288 34.8505 23.4328 34.4464 23.9267 34.4464H27.5182C28.0121 34.4464 28.4161 34.8505 28.4161 35.3443ZM28.4161 39.2286C28.4161 39.7224 28.0121 40.1264 27.5182 40.1264H26.3074C25.8135 40.1264 25.4095 39.7224 25.4095 39.2286C25.4095 38.7347 25.8135 38.3307 26.3074 38.3307H27.5182C28.0121 38.3307 28.4161 38.7347 28.4161 39.2286ZM23.8459 27.7222H25.2209C25.7148 27.7222 26.1188 28.1262 26.1188 28.62C26.1188 29.1139 25.7148 29.5179 25.2209 29.5179H23.8459C23.352 29.5179 22.948 29.1139 22.948 28.62C22.948 28.1262 23.352 27.7222 23.8459 27.7222ZM23.0288 43.1129C23.0288 42.619 23.4328 42.215 23.9267 42.215H32.3694C32.8632 42.215 33.2673 42.619 33.2673 43.1129C33.2673 43.6067 32.8632 44.0108 32.3694 44.0108H23.9267C23.4328 44.0108 23.0288 43.6067 23.0288 43.1129ZM27.5182 47.895H26.3074C25.8135 47.895 25.4095 47.491 25.4095 46.9971C25.4095 46.5033 25.8135 46.0992 26.3074 46.0992H27.5182C28.0121 46.0992 28.4161 46.5033 28.4161 46.9971C28.4161 47.491 28.0121 47.895 27.5182 47.895ZM34.85 47.895H31.6843C31.1905 47.895 30.7864 47.491 30.7864 46.9971C30.7864 46.5033 31.1905 46.0992 31.6843 46.0992H34.85C35.3439 46.0992 35.7479 46.5033 35.7479 46.9971C35.7479 47.491 35.3439 47.895 34.85 47.895ZM45.127 47.895H39.3035C38.8097 47.895 38.4057 47.491 38.4057 46.9971C38.4057 46.5033 38.8097 46.0992 39.3035 46.0992H45.1269C45.6208 46.0992 46.0248 46.5033 46.0248 46.9971C46.0248 47.491 45.6208 47.895 45.127 47.895ZM45.127 44.0108H36.6458C36.152 44.0108 35.7479 43.6067 35.7479 43.1129C35.7479 42.619 36.152 42.215 36.6458 42.215H45.1269C45.6208 42.215 46.0248 42.619 46.0248 43.1129C46.0248 43.6067 45.6208 44.0108 45.127 44.0108ZM45.127 40.1264H39.1265C38.6327 40.1264 38.2287 39.7224 38.2287 39.2286C38.2287 38.7347 38.6327 38.3307 39.1265 38.3307H45.127C45.6208 38.3307 46.0249 38.7347 46.0249 39.2286C46.0249 39.7224 45.6208 40.1264 45.127 40.1264ZM53.9806 43.8061C54.3298 44.1553 54.3298 44.7267 53.9806 45.0759C53.6315 45.4251 53.06 45.4251 52.7108 45.0759L49.3798 41.7449C49.0306 41.3957 49.0306 40.8243 49.3798 40.475L52.7109 37.144C53.06 36.7948 53.6315 36.7948 53.9807 37.144C54.3299 37.4931 54.3299 38.0646 53.9807 38.4138L51.2845 41.11L53.9806 43.8061ZM60.459 35.925L57.3783 46.785C57.2435 47.2601 56.7445 47.5385 56.2694 47.4038C55.7943 47.269 55.5159 46.77 55.6507 46.2949L58.7314 35.4349C58.8661 34.9598 59.3651 34.6814 59.8402 34.8162C60.3153 34.9509 60.5937 35.4499 60.459 35.925ZM66.7298 41.7449L63.3988 45.0759C63.0497 45.4251 62.4783 45.4251 62.129 45.0759C61.7799 44.7268 61.7799 44.1554 62.129 43.8061L64.8252 41.11L62.129 38.4138C61.7799 38.0646 61.7799 37.4932 62.129 37.144C62.4783 36.7948 63.0496 36.7948 63.3988 37.144L66.7298 40.475C67.079 40.8242 67.079 41.3956 66.7298 41.7449ZM20.0164 59.4944L20 55.0061L69.9812 54.823L69.9976 59.3113C70.0019 60.4965 69.0358 61.4698 67.8506 61.4741L60.4585 61.5012L60.466 63.5695C60.4687 64.302 59.8716 64.9034 59.1392 64.9061L30.9156 65.0094C30.1832 65.0121 29.5817 64.415 29.579 63.6827L29.5714 61.6143L22.1793 61.6414C20.9941 61.6457 20.0208 60.6796 20.0164 59.4944ZM47.6143 60.6286C47.8804 60.6286 48.0962 60.4129 48.0962 60.1468L48.0963 59.7287C48.0963 59.4625 47.8806 59.2468 47.6144 59.2468C47.5928 59.2468 47.5716 59.2487 47.5507 59.2515C47.4923 59.029 47.4053 58.8182 47.2938 58.6232C47.3153 58.6078 47.3361 58.591 47.3553 58.5718C47.5435 58.3836 47.5435 58.0785 47.3553 57.8903L47.0597 57.5947C46.8715 57.4065 46.5665 57.4065 46.3783 57.5947C46.3596 57.6134 46.3434 57.6334 46.3284 57.6541C46.1359 57.5431 45.9277 57.4561 45.7081 57.3968C45.7144 57.3657 45.7177 57.3336 45.7177 57.3007C45.7177 57.0346 45.502 56.8188 45.2359 56.8188H44.8178C44.5518 56.8188 44.336 57.0345 44.336 57.3007C44.336 57.3336 44.3393 57.3657 44.3456 57.3968C44.1122 57.4598 43.8917 57.5544 43.689 57.6756C43.6701 57.6453 43.6478 57.6166 43.6215 57.5902C43.4333 57.402 43.1282 57.402 42.94 57.5902L42.6445 57.8858C42.4563 58.074 42.4563 58.379 42.6445 58.5672C42.6758 58.5987 42.7108 58.6244 42.7476 58.6453C42.6404 58.8372 42.5565 59.0439 42.5003 59.2617C42.4628 59.2524 42.4238 59.2468 42.3834 59.2468C42.1174 59.2468 41.9016 59.4625 41.9016 59.7287V60.1467C41.9016 60.4129 42.1173 60.6286 42.3834 60.6286C42.4277 60.6286 42.4705 60.6221 42.5112 60.6109C42.571 60.8279 42.658 61.0335 42.7685 61.2239C42.7369 61.2434 42.7068 61.2663 42.6794 61.2936C42.4912 61.4818 42.4912 61.7869 42.6794 61.9751L42.975 62.2707C43.1632 62.4589 43.4683 62.4589 43.6565 62.2707C43.6845 62.2427 43.7078 62.2119 43.7274 62.1795C43.9195 62.2899 44.1268 62.3766 44.3456 62.4355C44.3394 62.4666 44.336 62.4987 44.336 62.5317C44.336 62.7978 44.5517 63.0136 44.8178 63.0136H45.2359C45.502 63.0136 45.7177 62.7979 45.7177 62.5317C45.7177 62.4987 45.7144 62.4666 45.7081 62.4355C45.9128 62.3804 46.1073 62.3009 46.2888 62.2005C46.3049 62.2235 46.3227 62.2456 46.3432 62.2662C46.5314 62.4544 46.8365 62.4544 47.0247 62.2662L47.3203 61.9706C47.5085 61.7824 47.5085 61.4773 47.3203 61.2891C47.3048 61.2737 47.2884 61.26 47.2715 61.2471C47.3865 61.0535 47.4773 60.8439 47.5394 60.6222C47.5639 60.6261 47.5888 60.6286 47.6143 60.6286ZM45.1158 61.1674C45.8064 61.1183 46.3265 60.5186 46.2774 59.828C46.2283 59.1373 45.6287 58.6172 44.938 58.6662C44.2474 58.7153 43.7273 59.315 43.7764 60.0057C43.8255 60.6964 44.4252 61.2165 45.1158 61.1674ZM37.0739 66.7537H52.9456C53.6781 66.7537 54.2773 67.3529 54.2773 68.0853V70.859H35.7422V68.0853C35.7422 67.3529 36.3414 66.7537 37.0739 66.7537Z" fill="#363739"/>
</svg>
