<svg width="90" height="90" viewBox="0 0 90 90" fill="none" xmlns="http://www.w3.org/2000/svg">
  <path fill-rule="evenodd" clip-rule="evenodd" d="M45 90C69.8528 90 90 69.8528 90 45C90 20.1472 69.8528 0 45 0C20.1472 0 0 20.1472 0 45C0 69.8528 20.1472 90 45 90ZM62.65 21H28.35C24.2907 21 21 24.2907 21 28.35V62.65C21 66.7093 24.2907 70 28.35 70H62.65C66.7093 70 70 66.7093 70 62.65V28.35C70 24.2907 66.7093 21 62.65 21ZM41.54 64V44.89H35.9V41.95H50.57V44.89H44.87V64H41.54ZM57.1838 64.3C56.3438 64.3 55.5138 64.2 54.6938 64C53.8738 63.78 53.1438 63.52 52.5038 63.22C51.8638 62.9 51.3838 62.58 51.0638 62.26L52.6538 59.41C52.8738 59.59 53.2138 59.83 53.6738 60.13C54.1538 60.41 54.7038 60.66 55.3238 60.88C55.9438 61.1 56.5638 61.21 57.1838 61.21C58.2038 61.21 59.0538 60.97 59.7338 60.49C60.4338 60.01 60.7838 59.31 60.7838 58.39C60.7838 57.63 60.5838 57 60.1838 56.5C59.7838 56 59.2538 55.56 58.5938 55.18C57.9538 54.8 57.2538 54.44 56.4938 54.1C55.7538 53.74 55.0438 53.34 54.3638 52.9C53.5838 52.38 52.9038 51.69 52.3238 50.83C51.7438 49.97 51.4538 48.86 51.4538 47.5C51.4538 46.16 51.7538 45.06 52.3538 44.2C52.9738 43.34 53.7838 42.7 54.7838 42.28C55.8038 41.84 56.9138 41.62 58.1138 41.62C59.0738 41.62 59.8938 41.72 60.5738 41.92C61.2538 42.12 61.8238 42.36 62.2838 42.64C62.7438 42.92 63.1038 43.17 63.3638 43.39L61.7738 46.12C61.4338 45.76 60.9238 45.43 60.2438 45.13C59.5638 44.81 58.8038 44.65 57.9638 44.65C56.9838 44.65 56.2038 44.88 55.6238 45.34C55.0438 45.78 54.7538 46.44 54.7538 47.32C54.7538 48.1 55.0138 48.77 55.5338 49.33C56.0538 49.87 56.7138 50.37 57.5138 50.83C58.3338 51.27 59.1738 51.72 60.0338 52.18C60.8938 52.64 61.6538 53.18 62.3138 53.8C62.8538 54.28 63.3138 54.88 63.6938 55.6C64.0738 56.32 64.2638 57.13 64.2638 58.03C64.2638 59.39 63.9438 60.54 63.3038 61.48C62.6838 62.42 61.8438 63.13 60.7838 63.61C59.7238 64.07 58.5238 64.3 57.1838 64.3Z" fill="#363739"/>
</svg>
