<svg width="90" height="90" viewBox="0 0 90 90" fill="none" xmlns="http://www.w3.org/2000/svg">
  <path fill-rule="evenodd" clip-rule="evenodd" d="M90 45C90 69.8528 69.8528 90 45 90C20.1472 90 0 69.8528 0 45C0 20.1472 20.1472 0 45 0C69.8528 0 90 20.1472 90 45ZM26.2474 65.5085C26.3109 65.572 26.412 65.5697 26.4755 65.5085C26.5366 65.445 26.539 65.3439 26.4778 65.2804C19.7822 58.232 15.2103 46.7575 24.3588 37.6113C32.1457 29.822 41.4401 36.172 48.9071 41.2754C53.8389 44.6479 58.098 47.5571 60.4898 45.17C64.0693 41.5882 59.749 36.7105 58.3379 35.2994L57.6841 34.6738C57.6206 34.6127 57.5218 34.615 57.4607 34.6762C57.3972 34.7373 57.3948 34.8385 57.4536 34.902C59.8266 37.5313 60.3064 40.0383 58.7354 41.6117C56.2829 44.0619 52.039 41.1683 47.1248 37.8177L47.1248 37.8177L47.1221 37.8159C39.6316 32.7054 30.3066 26.3484 21.9788 34.6762C19.3518 37.3032 17.6867 40.2171 17 43.3709C18.2253 28.6062 30.5888 16.9999 45.671 16.9999C59.0505 16.9999 70.2969 26.132 73.5213 38.5003C71.7151 33.4721 68.2414 29.3917 65.899 27.0469L65.097 26.2637C65.0335 26.2026 64.9324 26.2026 64.8689 26.2637C64.8078 26.3272 64.8054 26.4284 64.8666 26.4919C71.5622 33.5403 76.1365 45.0148 66.9856 54.1634C59.1987 61.9502 49.9043 55.6003 42.4373 50.4969L42.4335 50.4943C37.5033 47.1252 33.2458 44.2158 30.8546 46.6046C29.9327 47.5289 29.4623 48.6154 29.4623 49.8337C29.4623 57.8745 32.308 65.819 37.014 72.8815C37.1692 73.0438 37.3221 73.2037 37.4726 73.366C28.1523 70.6002 20.8076 63.2437 18.063 53.9141C19.9233 58.6483 23.2017 62.4818 25.4454 64.7254L26.2474 65.5085ZM36.3027 61.3889H38.6781L41.0228 69.3192H41.0534L43.3676 61.2337H44.7105L47.1164 69.3192H47.147L49.4306 61.3889H51.8059L47.8713 73.2515H46.2062L43.8921 65.6457H43.8615L41.6696 73.2515H40.0045L36.3027 61.3889ZM59.1628 62.3759C58.4525 61.5881 57.0179 61.0801 55.9855 61.0801C54.0264 61.0801 52.5918 62.637 52.5918 64.5655C52.5918 66.3717 53.6854 67.1266 55.1835 67.7451C55.2448 67.7691 55.307 67.7929 55.3698 67.817C56.2382 68.1498 57.2037 68.5199 57.2037 69.6407C57.2037 70.5368 56.6322 71.3223 55.7079 71.3223C54.7343 71.3223 53.9182 70.5203 53.6101 69.6266L52.1426 71.0612C52.9469 72.4041 54.1181 73.3284 55.722 73.3284C58.0974 73.3284 59.5485 71.6774 59.5485 69.3491C59.5485 67.0639 57.9683 66.3967 56.6578 65.8435C55.7295 65.4515 54.9365 65.1168 54.9365 64.3044C54.9365 63.5495 55.6303 62.9921 56.3547 62.9921C57.112 62.9921 57.667 63.3637 58.0974 63.9493L59.1628 62.3759ZM61.8887 61.3889H64.1558V71.2783H67.3637V73.2515H61.8887V61.3889Z" fill="#363739"/>
</svg>
