<svg width="24" height="24" viewBox="0 0 24 24" fill="none" xmlns="http://www.w3.org/2000/svg">
<g clip-path="url(#clip0_3164_288)">
<path d="M5.72356 12C5.72356 12.5099 5.3104 12.9231 4.80048 12.9231H2.95433C2.44441 12.9231 2.03125 12.5099 2.03125 12C2.03125 11.4901 2.44441 11.0769 2.95433 11.0769H4.80048C5.31045 11.0769 5.72356 11.4901 5.72356 12ZM5.72356 6.09231C5.72356 5.58239 5.3104 5.16923 4.80048 5.16923H2.95433C2.44441 5.16923 2.03125 5.58239 2.03125 6.09231C2.03125 6.60223 2.44441 7.01538 2.95433 7.01538H4.80048C5.31045 7.01538 5.72356 6.60223 5.72356 6.09231ZM5.72356 17.9077C5.72356 17.3977 5.3104 16.9847 4.80048 16.9847H2.95433C2.44441 16.9847 2.03125 17.3977 2.03125 17.9077C2.03125 18.4177 2.44441 18.8308 2.95433 18.8308H4.80048C5.31045 18.8308 5.72356 18.4176 5.72356 17.9077ZM21.9697 2.95385V21.0462C21.9697 22.6774 20.6472 24 19.016 24H6.0929C4.46166 24 3.13905 22.6774 3.13905 21.0462V19.5692H4.80059C5.71666 19.5692 6.46213 18.8237 6.46213 17.9077C6.46213 16.9916 5.71666 16.246 4.80059 16.246H3.13894V13.6614H4.80048C5.71655 13.6614 6.46202 12.916 6.46202 11.9999C6.46202 11.0838 5.71655 10.3384 4.80048 10.3384H3.13894V7.75374H4.80048C5.71655 7.75374 6.46202 7.00827 6.46202 6.0922C6.46202 5.17613 5.71655 4.43066 4.80048 4.43066H3.13894V2.95385C3.13894 1.32261 4.46155 0 6.09279 0H19.0159C20.6471 0 21.9697 1.32255 21.9697 2.95385ZM10.2599 8.75593C10.2599 10.3289 11.5352 11.6042 13.1082 11.6042C14.6811 11.6042 15.9564 10.3289 15.9564 8.75593C15.9564 7.183 14.6811 5.90764 13.1082 5.90764C11.5353 5.90769 10.2599 7.183 10.2599 8.75593ZM17.5389 15.7185C17.5389 13.9709 16.1219 12.5538 14.3743 12.5538H11.8425C10.0945 12.5538 8.6774 13.971 8.6774 15.7185V16.9846H17.5389V15.7185Z" fill="#E6E6E6"/>
</g>
<defs>
<clipPath id="clip0_3164_288">
<rect width="24" height="24" fill="white"/>
</clipPath>
</defs>
</svg>
